<svg width="177" height="23" viewBox="0 0 177 23" fill="none" xmlns="http://www.w3.org/2000/svg">
<path d="M68.4176 0.0428205C67.2909 0.329438 66.599 1.21894 66.5891 2.38518C66.5793 4.58916 69.2576 5.60715 70.8093 3.98628C71.8965 2.85958 71.4715 0.803839 70.0384 0.210837C69.5937 0.0230536 68.803 -0.0560131 68.4176 0.0428205Z" fill="white"/>
<path d="M34.7646 7.68262C34.7646 16.0637 34.8338 16.9038 35.585 18.4258C36.2076 19.7008 37.3936 20.5507 39.1627 20.9955C41.5051 21.5885 45.6166 21.549 48.8978 20.9065C49.4711 20.7978 49.9455 20.7089 49.9652 20.7089C49.9751 20.7089 49.985 16.3306 49.985 10.9738V1.23867H47.7613H45.5375V9.58022V17.9218L44.8753 18.0008C44.5195 18.0305 43.7486 18.0404 43.1754 18.0107C41.7917 17.9415 41.0603 17.6846 40.3586 17.0422C39.736 16.4689 39.4395 15.866 39.311 14.8579C39.2616 14.4626 39.2122 11.1912 39.2122 7.58379V1.04101H36.9884H34.7646V7.68262Z" fill="white"/>
<path d="M81.0978 1.69334C79.9711 1.86135 78.5775 2.33575 77.6584 2.84969C76.6404 3.42292 75.1678 4.88566 74.5649 5.92341C73.4184 7.8902 72.9342 10.4401 73.201 13.0691C73.4975 16.0044 74.5748 18.2677 76.3538 19.681C77.0852 20.2642 78.4886 20.9362 79.4868 21.1932C81.8885 21.8158 85.1401 21.6577 87.6505 20.7979C88.1644 20.6298 88.9748 20.274 89.0934 20.1752C89.1429 20.1357 88.0359 16.9137 87.9569 16.8346C87.9173 16.7951 87.5319 16.8939 87.097 17.0619C85.911 17.5265 84.7151 17.7439 83.3216 17.7439C81.9181 17.7439 81.3054 17.6352 80.4554 17.2399C79.1211 16.6073 78.1624 15.3027 77.7968 13.5929C77.5497 12.4761 77.5793 10.3116 77.8462 9.3134C78.3799 7.28731 79.724 5.90365 81.5623 5.48854C82.185 5.35018 83.8948 5.35018 84.7052 5.48854C85.4069 5.61703 86.3755 5.91353 87.1266 6.23968C87.4034 6.36816 87.6406 6.45711 87.6406 6.43735C87.6406 6.41758 87.9074 5.65656 88.2336 4.74729C88.5597 3.83802 88.8266 3.05724 88.8266 3.01771C88.8266 2.97817 88.4807 2.79039 88.0656 2.59272C86.0494 1.68345 83.3809 1.32765 81.0978 1.69334Z" fill="white"/>
<path d="M56.8539 6.378C55.6184 6.46695 54.8179 6.58555 53.3749 6.88205L52.3569 7.09949V14.1463V21.203H54.3336H56.3103V15.5695C56.3103 10.4499 56.33 9.92613 56.4684 9.86683C56.5574 9.83718 57.1899 9.79764 57.8817 9.79764C58.9887 9.78776 59.1764 9.80753 59.5421 10.0052C60.0561 10.2819 60.313 10.618 60.5305 11.2604C60.6787 11.7051 60.7084 12.3574 60.738 16.4788L60.7677 21.203H62.7938H64.8198L64.7902 16.1428C64.7507 11.2999 64.7408 11.0331 64.5332 10.3017C63.96 8.23607 62.6159 6.94135 60.5996 6.52625C59.6706 6.33847 58.1683 6.27917 56.8539 6.378Z" fill="white"/>
<path d="M94.3415 6.378C93.4619 6.59544 92.3945 7.09949 91.7422 7.58377C89.6766 9.15523 88.6092 11.9127 88.9156 14.9073C89.0539 16.2317 89.2417 16.9235 89.726 17.9316C91.0108 20.5507 93.9659 21.8652 97.7908 21.5094C99.1251 21.3908 100.548 21.1141 101.26 20.8373C101.635 20.699 101.675 20.6496 101.635 20.4222C101.606 20.2839 101.487 19.592 101.378 18.8804C101.26 18.1688 101.151 17.5462 101.131 17.477C101.102 17.3881 100.953 17.4078 100.558 17.5363C99.2832 17.9811 97.0397 18.1688 95.8339 17.9415C94.4403 17.6747 93.3828 16.7555 93.1259 15.5992L93.0567 15.273H97.7513H102.436L102.505 14.4033C102.604 13.0295 102.406 11.4482 101.981 10.2029C101.556 8.98721 100.558 7.76167 99.471 7.12914C98.4728 6.53614 97.7019 6.35824 96.1403 6.3187C95.3496 6.29894 94.5392 6.32859 94.3415 6.378ZM96.9013 9.78776C97.7513 10.1436 98.3047 10.8848 98.4925 11.883L98.5815 12.4068H95.824H93.0764L93.1357 12.1301C93.4915 10.4895 94.4206 9.63951 95.8734 9.63951C96.249 9.63951 96.6937 9.70869 96.9013 9.78776Z" fill="white"/>
<path d="M107.902 6.4373C106.459 6.74368 105.124 7.6826 104.601 8.76977C104.067 9.8767 104.067 11.5272 104.591 12.6737C105.114 13.8202 106.014 14.4428 108.801 15.5695C110.58 16.291 111.104 16.7852 110.857 17.5165C110.699 18.0206 110.313 18.1688 109.088 18.2183C107.882 18.2677 106.656 18.0799 105.352 17.6648L104.472 17.3782L104.146 18.999C103.948 19.9676 103.849 20.6496 103.909 20.7089C103.958 20.7583 104.482 20.9362 105.075 21.0943C107.714 21.8356 110.896 21.717 112.804 20.8077C114.434 20.0269 115.215 18.4159 114.929 16.4294C114.662 14.5021 113.782 13.6818 110.59 12.3772C108.821 11.6458 108.425 11.4086 108.287 10.9342C108.139 10.4499 108.307 10.0744 108.791 9.79764C109.097 9.60985 109.295 9.59009 110.471 9.59997C111.618 9.60985 111.934 9.64939 112.685 9.8767C113.169 10.025 113.584 10.1139 113.614 10.0941C113.703 10.0052 114.336 7.12913 114.286 7.01053C114.237 6.89193 112.903 6.53613 111.855 6.378C110.936 6.23963 108.663 6.26928 107.902 6.4373Z" fill="white"/>
<path d="M135.279 6.38789C134.765 6.4373 133.687 6.6152 132.877 6.77334C132.076 6.94135 131.404 7.06984 131.375 7.06984C131.345 7.06984 131.325 10.2523 131.325 14.1364V21.203H133.351H135.377V15.5794V9.95578L135.694 9.88659C135.862 9.84706 136.385 9.80753 136.85 9.80753C138.174 9.79764 138.708 10.1534 139.094 11.3197C139.252 11.804 139.271 12.3475 139.311 16.5282L139.341 21.203H141.367H143.383V16.4393C143.383 13.3458 143.343 11.458 143.274 11.0429C143.136 10.2819 143.185 10.2325 144.075 9.96566C145.152 9.63951 146.17 9.82729 146.694 10.4499C147.247 11.1121 147.277 11.3493 147.316 16.4788L147.346 21.203H149.431H151.507L151.458 16.2317C151.418 11.7348 151.398 11.1912 151.211 10.3709C150.865 8.77966 150.193 7.75179 149.076 7.07972C148.176 6.54602 147.386 6.35824 145.903 6.33847C144.381 6.32859 143.521 6.52625 142.236 7.20821L141.436 7.63319L141.199 7.43552C140.853 7.15879 139.953 6.72392 139.331 6.53614C138.659 6.32859 136.593 6.24952 135.279 6.38789Z" fill="white"/>
<path d="M156.528 6.42745C155.332 6.59547 154.156 6.8722 154.156 6.97104C154.156 7.02045 154.264 7.75182 154.403 8.5919C154.541 9.43199 154.65 10.1436 154.65 10.1634C154.65 10.1831 154.936 10.1238 155.292 10.025C156.874 9.59012 159.246 9.53082 160.086 9.90639C160.906 10.2721 161.37 11.0232 161.37 12.0017C161.37 12.3673 161.341 12.4168 161.202 12.3575C160.787 12.2092 158.89 12.1203 157.921 12.2092C156.656 12.3278 155.885 12.5255 155.055 12.9505C153.573 13.6917 152.772 15.0161 152.772 16.716C152.772 19.1572 154.047 20.6891 156.577 21.2722C157.219 21.4205 157.763 21.4501 159.443 21.4403C161.539 21.4304 162.181 21.3711 164.217 20.9955L165.334 20.788L165.304 15.7277C165.265 10.9343 165.255 10.6378 165.057 9.91627C164.78 8.93782 164.553 8.51284 163.99 7.8803C163.416 7.24777 162.25 6.64488 161.153 6.42745C160.234 6.24955 157.763 6.23967 156.528 6.42745ZM161.202 15.0359C161.351 15.0853 161.37 15.2928 161.37 16.6567V18.2282L160.817 18.2974C159.957 18.3962 158.317 18.2875 157.832 18.0898C157.289 17.8724 156.953 17.4573 156.874 16.9137C156.725 15.9254 157.338 15.1841 158.494 14.9667C158.979 14.8777 160.926 14.9271 161.202 15.0359Z" fill="white"/>
<path d="M172.193 6.38789C171.096 6.46696 169.761 6.73381 168.467 7.12914L167.597 7.39599V14.3045V21.203H169.672H171.748V15.6288C171.748 10.4203 171.758 10.0546 171.926 9.98543C172.015 9.9459 172.608 9.88659 173.23 9.86683C174.13 9.82729 174.565 9.85695 175.345 10.025C175.889 10.1436 176.344 10.2226 176.363 10.2029C176.433 10.1238 177.055 6.86229 176.996 6.83264C176.709 6.66462 173.873 6.24952 173.339 6.28905C173.25 6.29894 172.736 6.33847 172.193 6.38789Z" fill="white"/>
<path d="M116.53 11.5865C116.559 15.9649 116.589 16.6962 116.737 17.2991C117.261 19.3647 118.388 20.6002 120.305 21.203C121.916 21.717 125.929 21.5193 128.686 20.7978L129.052 20.699V13.6423V6.57568H127.026H125V12.1993C125 15.4806 124.96 17.8526 124.911 17.8822C124.861 17.9218 124.357 17.9712 123.794 18.0008C121.629 18.1392 120.878 17.5067 120.651 15.362C120.601 14.848 120.552 12.6638 120.552 10.4994V6.57568H118.516H116.49L116.53 11.5865Z" fill="white"/>
<path d="M66.9844 13.9388V21.203H69.0105H71.0366V13.9388V6.6745H69.0105H66.9844V13.9388Z" fill="white"/>
<path d="M0.423748 0.795162C0.229358 0.862972 0.0892163 1.00311 0.0349679 1.18846C0.00332301 1.30148 -0.00571839 2.82948 0.00332301 5.93972C0.0214058 10.8989 0.0123644 10.6548 0.274565 11.9296C0.591014 13.4712 1.2872 15.1258 2.20038 16.4956C4.32059 19.6781 7.58002 21.717 11.3864 22.2414C12.0872 22.3363 13.805 22.3544 14.5283 22.2685C19.1033 21.735 23.0182 18.9367 24.9892 14.7958C25.5724 13.5661 25.9205 12.3772 26.0968 10.9803C26.1556 10.5056 26.2415 9.13133 26.1872 9.48847C25.9115 11.3329 25.708 12.1738 25.2786 13.218C24.3654 15.4422 22.7063 17.1239 20.2696 18.3038C16.9966 19.8816 13.4886 19.9494 10.1975 18.4892C6.56738 16.8753 4.66869 14.4386 4.02223 10.5734C3.78263 9.14038 3.74646 8.29952 3.74646 4.50666C3.75098 0.781599 3.76907 0.989552 3.41645 0.826807C3.24467 0.749954 3.10904 0.740913 1.89298 0.745434C1.08829 0.745434 0.505121 0.768038 0.423748 0.795162Z" fill="white"/>
<path d="M22.5255 0.85848C22.4532 0.894648 22.3492 0.989582 22.2995 1.07095C22.2181 1.2111 22.2136 1.3648 22.1865 6.21099C22.1639 10.6729 22.1548 11.2561 22.0825 11.672C21.8339 13.1548 21.418 14.1267 20.5681 15.1981C19.6142 16.4052 18.4659 17.3229 17.0148 18.0326C16.3322 18.3717 15.2291 18.7695 14.6912 18.8735C14.1984 18.9684 14.4696 19.0227 15.2969 18.991C16.8701 18.9322 18.258 18.6022 19.7227 17.9377C20.9704 17.3771 21.7163 16.8618 22.6657 15.9079C23.511 15.067 24.1711 14.1765 24.6503 13.2316C25.2108 12.1331 25.5815 10.4424 25.7171 8.35832C25.803 7.0654 25.7307 1.53207 25.6222 1.13424C25.5906 1.01671 25.5318 0.935333 25.4323 0.876564C25.2967 0.79067 25.1973 0.78615 23.9767 0.78615C22.9007 0.78615 22.6431 0.799711 22.5255 0.85848Z" fill="white"/>
<path d="M12.3359 1.04385C11.8839 1.0981 11.034 1.30153 10.6136 1.44619C8.60185 2.14238 6.8659 3.65229 5.92107 5.52838C5.34242 6.6676 5.05762 7.91079 5.05762 9.2444C5.06214 10.9442 5.50969 12.436 6.42739 13.8058C7.71579 15.7271 9.66873 16.9884 11.9607 17.3817C13.3667 17.6213 14.9941 17.4495 16.3322 16.9206C18.1315 16.2063 19.7183 14.7958 20.5681 13.1503L20.7987 12.6982L20.6043 12.9243C19.6324 14.0635 18.4163 14.8455 16.9471 15.266C14.5014 15.9712 11.6398 15.4016 9.7049 13.8148C7.11002 11.6991 6.26917 7.92888 7.70223 4.86836C8.57472 3.00583 10.1524 1.81237 12.354 1.34674C12.8197 1.24728 13.0638 1.22468 13.9634 1.20207C15.0212 1.17495 15.0258 1.17495 14.7093 1.11618C14.3974 1.05289 12.6569 0.998642 12.3359 1.04385Z" fill="white"/>
<path d="M13.448 1.28343C12.2184 1.42357 11.0747 1.82139 10.1389 2.44072C9.57379 2.81594 8.85047 3.54378 8.47526 4.1179C7.8514 5.06725 7.4581 6.21099 7.38577 7.25075L7.35864 7.63501L7.46714 7.36377C7.83332 6.45963 8.25826 5.78152 8.86856 5.13958C9.39748 4.58806 9.92188 4.19928 10.5819 3.86022C11.5086 3.39007 12.3721 3.18212 13.3983 3.18212C14.3793 3.18212 15.1478 3.36295 15.9706 3.78337C16.5764 4.09078 17.0194 4.42983 17.5664 5.00396L18.023 5.48768H19.3611C20.098 5.48768 20.6992 5.46959 20.6992 5.45151C20.6992 5.37918 20.1477 4.59258 19.8403 4.22188C18.6785 2.8295 17.4534 1.96605 15.8847 1.43713C15.3964 1.26986 15.3738 1.26986 14.5963 1.2563C14.1623 1.25178 13.6424 1.26082 13.448 1.28343Z" fill="white"/>
<path d="M18.1494 12.8022C17.6883 13.5933 17.0554 14.2714 16.314 14.7641L15.8394 15.0806L16.0654 15.0535C16.192 15.0354 16.5265 14.9585 16.8113 14.8862C18.2037 14.52 19.4921 13.8148 20.4505 12.8926L20.8573 12.4993H19.5915L18.3257 12.4948L18.1494 12.8022Z" fill="white"/>
<circle cx="13.5959" cy="8.99687" r="3.71263" fill="white"/>
</svg>
