<svg width="103" height="16" viewBox="0 0 103 16" fill="none" xmlns="http://www.w3.org/2000/svg">
<path d="M24.4771 0.0309651C23.6623 0.238236 23.162 0.881492 23.1548 1.72487C23.1477 3.31872 25.0846 4.05489 26.2067 2.88273C26.9929 2.06794 26.6856 0.581306 25.6492 0.152469C25.3276 0.0166707 24.7558 -0.0405076 24.4771 0.0309651Z" fill="#878787"/>
<path d="M0.140564 5.55581C0.140564 11.6167 0.190595 12.2242 0.733788 13.3249C1.18407 14.2469 2.04174 14.8616 3.32111 15.1832C5.01501 15.612 7.98828 15.5834 10.3612 15.1189C10.7757 15.0403 11.1188 14.9759 11.1331 14.9759C11.1402 14.9759 11.1474 11.8097 11.1474 7.93585V0.895777H9.53924H7.9311V6.92808V12.9604L7.45224 13.0176C7.19493 13.039 6.63744 13.0462 6.2229 13.0247C5.22228 12.9747 4.69338 12.7889 4.18593 12.3243C3.73565 11.9097 3.52123 11.4738 3.42831 10.7447C3.39258 10.4588 3.35684 8.09309 3.35684 5.48433V0.752831H1.7487H0.140564V5.55581Z" fill="#878787"/>
<path d="M33.647 1.22454C32.8323 1.34604 31.8245 1.68911 31.1598 2.06077C30.4236 2.47532 29.3587 3.53311 28.9227 4.28358C28.0936 5.70589 27.7434 7.54989 27.9364 9.45106C28.1508 11.5738 28.9298 13.2105 30.2164 14.2326C30.7452 14.6543 31.7602 15.1403 32.482 15.3261C34.2188 15.7764 36.5703 15.6621 38.3857 15.0402C38.7574 14.9187 39.3434 14.6614 39.4292 14.59C39.4649 14.5614 38.6644 12.2314 38.6073 12.1742C38.5787 12.1456 38.2999 12.2171 37.9854 12.3386C37.1278 12.6745 36.263 12.8317 35.2552 12.8317C34.2403 12.8317 33.7971 12.7531 33.1825 12.4672C32.2176 12.0098 31.5243 11.0663 31.2599 9.82987C31.0812 9.02223 31.1026 7.45697 31.2956 6.7351C31.6815 5.2699 32.6536 4.26928 33.983 3.9691C34.4332 3.86904 35.6697 3.86904 36.2558 3.9691C36.7633 4.06201 37.4637 4.27643 38.0069 4.51229C38.207 4.60521 38.3785 4.66953 38.3785 4.65524C38.3785 4.64094 38.5715 4.0906 38.8074 3.43305C39.0432 2.7755 39.2362 2.21087 39.2362 2.18228C39.2362 2.15369 38.9861 2.01789 38.6859 1.87494C37.2278 1.21739 35.2981 0.960092 33.647 1.22454Z" fill="#015488"/>
<path d="M16.1147 4.61236C15.2213 4.67668 14.6424 4.76245 13.5989 4.97687L12.8627 5.13411V10.2301V15.3333H14.2922H15.7216V11.2593C15.7216 7.55704 15.7359 7.17823 15.836 7.13535C15.9003 7.11391 16.3578 7.08532 16.8581 7.08532C17.6586 7.07817 17.7944 7.09246 18.0588 7.23541C18.4305 7.43553 18.6163 7.67854 18.7735 8.14312C18.8807 8.46474 18.9022 8.93646 18.9236 11.9169L18.9451 15.3333H20.4103H21.8755L21.854 11.6739C21.8254 8.1717 21.8183 7.97873 21.6682 7.44983C21.2536 5.95605 20.2816 5.01975 18.8236 4.71957C18.1517 4.58377 17.0653 4.54088 16.1147 4.61236Z" fill="#878787"/>
<path d="M43.2244 4.61236C42.5883 4.7696 41.8164 5.13411 41.3446 5.48433C39.8508 6.62075 39.0789 8.61484 39.3005 10.7805C39.4006 11.7382 39.5364 12.2385 39.8866 12.9675C40.8157 14.8616 42.9528 15.8122 45.7188 15.5549C46.6837 15.4691 47.7129 15.269 48.2275 15.0688C48.4991 14.9688 48.5276 14.933 48.4991 14.7686C48.4776 14.6686 48.3919 14.1683 48.3132 13.6537C48.2275 13.1391 48.1488 12.6888 48.1345 12.6388C48.1131 12.5744 48.0059 12.5887 47.72 12.6816C46.798 13.0033 45.1756 13.1391 44.3036 12.9747C43.2958 12.7817 42.5311 12.117 42.3453 11.2808L42.2952 11.0449H45.6902H49.078L49.128 10.416C49.1995 9.42248 49.0565 8.27892 48.7492 7.37836C48.4419 6.49924 47.72 5.61298 46.9338 5.15555C46.2119 4.72672 45.6544 4.59807 44.5252 4.56948C43.9534 4.55518 43.3673 4.57662 43.2244 4.61236ZM45.0755 7.07817C45.6902 7.33548 46.0904 7.87152 46.2262 8.5934L46.2906 8.9722H44.2965H42.3095L42.3524 8.77208C42.6097 7.58563 43.2815 6.97096 44.3322 6.97096C44.6038 6.97096 44.9254 7.021 45.0755 7.07817Z" fill="#015488"/>
<path d="M53.0305 4.65526C51.987 4.87683 51.0221 5.55582 50.6433 6.34202C50.2573 7.14252 50.2573 8.33611 50.6361 9.1652C51.0149 9.99428 51.6653 10.4446 53.6809 11.2593C54.9674 11.7811 55.3462 12.1385 55.1675 12.6674C55.0532 13.0319 54.7744 13.1391 53.8882 13.1748C53.0162 13.2106 52.1299 13.0748 51.1865 12.7746L50.5504 12.5673L50.3145 13.7395C50.1716 14.4399 50.1001 14.9331 50.143 14.9759C50.1787 15.0117 50.5575 15.1403 50.9864 15.2547C52.8947 15.7907 55.1961 15.705 56.5755 15.0474C57.7548 14.4828 58.3195 13.3178 58.1122 11.8812C57.9192 10.4874 57.2831 9.89422 54.9745 8.95078C53.6952 8.42188 53.4093 8.25034 53.3092 7.90727C53.202 7.55706 53.3235 7.28546 53.6737 7.08534C53.8953 6.94954 54.0382 6.93524 54.8888 6.94239C55.7179 6.94954 55.9466 6.97813 56.4898 7.14252C56.84 7.24972 57.1402 7.31405 57.1616 7.29976C57.2259 7.23543 57.6834 5.15557 57.6476 5.0698C57.6119 4.98404 56.647 4.72673 55.8894 4.61238C55.2247 4.51231 53.5808 4.53376 53.0305 4.65526Z" fill="#015488"/>
<path d="M72.8285 4.6195C72.4568 4.65524 71.6777 4.78389 71.0917 4.89825C70.5127 5.01975 70.0267 5.11267 70.0053 5.11267C69.9838 5.11267 69.9695 7.41409 69.9695 10.223V15.3333H71.4347H72.8999V11.2665V7.19967L73.1286 7.14964C73.2501 7.12105 73.629 7.09246 73.9649 7.09246C74.9226 7.08532 75.3086 7.34262 75.5873 8.186C75.7017 8.53622 75.716 8.92932 75.7445 11.9526L75.766 15.3333H77.2312H78.6892V11.8883C78.6892 9.65119 78.6606 8.28606 78.6106 7.98588C78.5105 7.43553 78.5463 7.3998 79.1895 7.20682C79.9686 6.97096 80.7048 7.10676 81.0836 7.55704C81.4838 8.03591 81.5053 8.20744 81.5338 11.9169L81.5553 15.3333H83.0634H84.5643L84.5286 11.7382C84.5 8.48619 84.4857 8.09308 84.3499 7.49986C84.0997 6.34915 83.6137 5.60583 82.8061 5.11981C82.1557 4.73386 81.5839 4.59806 80.5118 4.58377C79.4111 4.57662 78.7893 4.71957 77.8601 5.21273L77.2812 5.52006L77.1097 5.37712C76.8595 5.17699 76.2091 4.86251 75.7588 4.72671C75.2728 4.57662 73.779 4.51944 72.8285 4.6195Z" fill="#015488"/>
<path d="M88.1951 4.6481C87.3303 4.76961 86.4797 4.96973 86.4797 5.04121C86.4797 5.07694 86.5584 5.60584 86.6584 6.21336C86.7585 6.82088 86.8371 7.33548 86.8371 7.34978C86.8371 7.36407 87.0444 7.32119 87.3017 7.24972C88.4452 6.93524 90.1606 6.89235 90.7681 7.16395C91.3613 7.4284 91.6973 7.97159 91.6973 8.67917C91.6973 8.94362 91.6758 8.97936 91.5758 8.93647C91.2756 8.82927 89.9033 8.76494 89.2029 8.82927C88.288 8.91503 87.7305 9.05798 87.1301 9.36531C86.0581 9.90136 85.4791 10.8591 85.4791 12.0884C85.4791 13.8538 86.4011 14.9616 88.2308 15.3833C88.6954 15.4905 89.0885 15.512 90.3035 15.5048C91.8188 15.4977 92.2833 15.4548 93.7557 15.1832L94.5633 15.0331L94.5419 11.3737C94.5133 7.90727 94.5061 7.69285 94.3632 7.1711C94.1631 6.46351 93.9987 6.15618 93.5913 5.69876C93.1768 5.24133 92.3334 4.80534 91.54 4.6481C90.8753 4.51945 89.0885 4.51231 88.1951 4.6481ZM91.5758 10.8734C91.683 10.9091 91.6973 11.0592 91.6973 12.0455V13.182L91.297 13.232C90.6752 13.3035 89.4888 13.2248 89.1385 13.0819C88.7454 12.9247 88.5024 12.6245 88.4452 12.2314C88.338 11.5166 88.7812 10.9806 89.6174 10.8234C89.9676 10.759 91.3756 10.7948 91.5758 10.8734Z" fill="#015488"/>
<path d="M99.5236 4.61951C98.7302 4.67668 97.7653 4.86966 96.829 5.15555L96.2001 5.34853V10.3445V15.3333H97.701H99.2019V11.3022C99.2019 7.5356 99.2091 7.27115 99.3306 7.22112C99.3949 7.19253 99.8237 7.14964 100.274 7.13535C100.924 7.10676 101.239 7.1282 101.804 7.24971C102.197 7.33547 102.525 7.39265 102.54 7.37836C102.59 7.32118 103.04 4.96257 102.997 4.94113C102.79 4.81963 100.739 4.51944 100.353 4.54803C100.288 4.55518 99.9167 4.58377 99.5236 4.61951Z" fill="#015488"/>
<path d="M59.27 8.37898C59.2915 11.5452 59.3129 12.0741 59.4201 12.5101C59.7989 14.0039 60.6137 14.8973 62.0003 15.3333C63.1653 15.7049 66.0671 15.562 68.0612 15.0402L68.3257 14.9688V9.86562V4.75531H66.8605H65.3953V8.82211C65.3953 11.195 65.3667 12.9104 65.3309 12.9318C65.2952 12.9604 64.9307 12.9961 64.5233 13.0176C62.958 13.1176 62.4148 12.6602 62.2505 11.1092C62.2147 10.7376 62.179 9.15804 62.179 7.59278V4.75531H60.7066H59.2415L59.27 8.37898Z" fill="#015488"/>
<path d="M23.4407 10.08V15.3333H24.9059H26.3711V10.08V4.82678H24.9059H23.4407V10.08Z" fill="#878787"/>
</svg>
