<svg width="128" height="17" viewBox="0 0 128 17" fill="none" xmlns="http://www.w3.org/2000/svg">
<path d="M49.4771 0.0309651C48.6623 0.238236 48.162 0.881492 48.1548 1.72487C48.1477 3.31872 50.0846 4.05489 51.2067 2.88273C51.9929 2.06794 51.6856 0.581306 50.6492 0.152469C50.3276 0.0166707 49.7558 -0.0405076 49.4771 0.0309651Z" fill="#878787"/>
<path d="M25.1406 5.55581C25.1406 11.6167 25.1906 12.2242 25.7338 13.3249C26.1841 14.2469 27.0417 14.8616 28.3211 15.1832C30.015 15.612 32.9883 15.5834 35.3612 15.1189C35.7757 15.0403 36.1188 14.9759 36.1331 14.9759C36.1402 14.9759 36.1474 11.8097 36.1474 7.93585V0.895777H34.5392H32.9311V6.92808V12.9604L32.4522 13.0176C32.1949 13.039 31.6374 13.0462 31.2229 13.0247C30.2223 12.9747 29.6934 12.7889 29.1859 12.3243C28.7356 11.9097 28.5212 11.4738 28.4283 10.7447C28.3926 10.4588 28.3568 8.09309 28.3568 5.48433V0.752831H26.7487H25.1406V5.55581Z" fill="#878787"/>
<path d="M58.647 1.22454C57.8323 1.34604 56.8245 1.68911 56.1598 2.06077C55.4236 2.47532 54.3587 3.53311 53.9227 4.28358C53.0936 5.70589 52.7434 7.54989 52.9364 9.45106C53.1508 11.5738 53.9298 13.2105 55.2164 14.2326C55.7452 14.6543 56.7602 15.1403 57.482 15.3261C59.2188 15.7764 61.5703 15.6621 63.3857 15.0402C63.7574 14.9187 64.3434 14.6614 64.4292 14.59C64.4649 14.5614 63.6644 12.2314 63.6073 12.1742C63.5787 12.1456 63.2999 12.2171 62.9854 12.3386C62.1278 12.6745 61.263 12.8317 60.2552 12.8317C59.2403 12.8317 58.7971 12.7531 58.1825 12.4672C57.2176 12.0098 56.5243 11.0663 56.2599 9.82987C56.0812 9.02223 56.1026 7.45697 56.2956 6.7351C56.6815 5.2699 57.6536 4.26928 58.983 3.9691C59.4332 3.86904 60.6697 3.86904 61.2558 3.9691C61.7633 4.06201 62.4637 4.27643 63.0069 4.51229C63.207 4.60521 63.3785 4.66953 63.3785 4.65524C63.3785 4.64094 63.5715 4.0906 63.8074 3.43305C64.0432 2.7755 64.2362 2.21087 64.2362 2.18228C64.2362 2.15369 63.9861 2.01789 63.6859 1.87494C62.2278 1.21739 60.2981 0.960092 58.647 1.22454Z" fill="#015488"/>
<path d="M41.1147 4.61236C40.2213 4.67668 39.6424 4.76245 38.5989 4.97687L37.8627 5.13411V10.2301V15.3333H39.2922H40.7216V11.2593C40.7216 7.55704 40.7359 7.17823 40.836 7.13535C40.9003 7.11391 41.3578 7.08532 41.8581 7.08532C42.6586 7.07817 42.7944 7.09246 43.0588 7.23541C43.4305 7.43553 43.6163 7.67854 43.7735 8.14312C43.8807 8.46474 43.9022 8.93646 43.9236 11.9169L43.9451 15.3333H45.4103H46.8755L46.854 11.6739C46.8254 8.1717 46.8183 7.97873 46.6682 7.44983C46.2536 5.95605 45.2816 5.01975 43.8236 4.71957C43.1517 4.58377 42.0653 4.54088 41.1147 4.61236Z" fill="#878787"/>
<path d="M68.2244 4.61236C67.5883 4.7696 66.8164 5.13411 66.3446 5.48433C64.8508 6.62075 64.0789 8.61484 64.3005 10.7805C64.4006 11.7382 64.5364 12.2385 64.8866 12.9675C65.8157 14.8616 67.9528 15.8122 70.7188 15.5549C71.6837 15.4691 72.7129 15.269 73.2275 15.0688C73.4991 14.9688 73.5276 14.933 73.4991 14.7686C73.4776 14.6686 73.3919 14.1683 73.3132 13.6537C73.2275 13.1391 73.1488 12.6888 73.1345 12.6388C73.1131 12.5744 73.0059 12.5887 72.72 12.6816C71.798 13.0033 70.1756 13.1391 69.3036 12.9747C68.2958 12.7817 67.5311 12.117 67.3453 11.2808L67.2952 11.0449H70.6902H74.078L74.128 10.416C74.1995 9.42248 74.0565 8.27892 73.7492 7.37836C73.4419 6.49924 72.72 5.61298 71.9338 5.15555C71.2119 4.72672 70.6544 4.59807 69.5252 4.56948C68.9534 4.55518 68.3673 4.57662 68.2244 4.61236ZM70.0755 7.07817C70.6902 7.33548 71.0904 7.87152 71.2262 8.5934L71.2906 8.9722H69.2965H67.3095L67.3524 8.77208C67.6097 7.58563 68.2815 6.97096 69.3322 6.97096C69.6038 6.97096 69.9254 7.021 70.0755 7.07817Z" fill="#015488"/>
<path d="M78.0305 4.65526C76.987 4.87683 76.0221 5.55582 75.6433 6.34202C75.2573 7.14252 75.2573 8.33611 75.6361 9.1652C76.0149 9.99428 76.6653 10.4446 78.6809 11.2593C79.9674 11.7811 80.3462 12.1385 80.1675 12.6674C80.0532 13.0319 79.7744 13.1391 78.8882 13.1748C78.0162 13.2106 77.1299 13.0748 76.1865 12.7746L75.5504 12.5673L75.3145 13.7395C75.1716 14.4399 75.1001 14.9331 75.143 14.9759C75.1787 15.0117 75.5575 15.1403 75.9864 15.2547C77.8947 15.7907 80.1961 15.705 81.5755 15.0474C82.7548 14.4828 83.3195 13.3178 83.1122 11.8812C82.9192 10.4874 82.2831 9.89422 79.9745 8.95078C78.6952 8.42188 78.4093 8.25034 78.3092 7.90727C78.202 7.55706 78.3235 7.28546 78.6737 7.08534C78.8953 6.94954 79.0382 6.93524 79.8888 6.94239C80.7179 6.94954 80.9466 6.97813 81.4898 7.14252C81.84 7.24972 82.1402 7.31405 82.1616 7.29976C82.2259 7.23543 82.6834 5.15557 82.6476 5.0698C82.6119 4.98404 81.647 4.72673 80.8894 4.61238C80.2247 4.51231 78.5808 4.53376 78.0305 4.65526Z" fill="#015488"/>
<path d="M97.8285 4.6195C97.4568 4.65524 96.6777 4.78389 96.0917 4.89825C95.5127 5.01975 95.0267 5.11267 95.0053 5.11267C94.9838 5.11267 94.9695 7.41409 94.9695 10.223V15.3333H96.4347H97.8999V11.2665V7.19967L98.1286 7.14964C98.2501 7.12105 98.629 7.09246 98.9649 7.09246C99.9226 7.08532 100.309 7.34262 100.587 8.186C100.702 8.53622 100.716 8.92932 100.745 11.9526L100.766 15.3333H102.231H103.689V11.8883C103.689 9.65119 103.661 8.28606 103.611 7.98588C103.511 7.43553 103.546 7.3998 104.19 7.20682C104.969 6.97096 105.705 7.10676 106.084 7.55704C106.484 8.03591 106.505 8.20744 106.534 11.9169L106.555 15.3333H108.063H109.564L109.529 11.7382C109.5 8.48619 109.486 8.09308 109.35 7.49986C109.1 6.34915 108.614 5.60583 107.806 5.11981C107.156 4.73386 106.584 4.59806 105.512 4.58377C104.411 4.57662 103.789 4.71957 102.86 5.21273L102.281 5.52006L102.11 5.37712C101.86 5.17699 101.209 4.86251 100.759 4.72671C100.273 4.57662 98.779 4.51944 97.8285 4.6195Z" fill="#015488"/>
<path d="M113.195 4.6481C112.33 4.76961 111.48 4.96973 111.48 5.04121C111.48 5.07694 111.558 5.60584 111.658 6.21336C111.758 6.82088 111.837 7.33548 111.837 7.34978C111.837 7.36407 112.044 7.32119 112.302 7.24972C113.445 6.93524 115.161 6.89235 115.768 7.16395C116.361 7.4284 116.697 7.97159 116.697 8.67917C116.697 8.94362 116.676 8.97936 116.576 8.93647C116.276 8.82927 114.903 8.76494 114.203 8.82927C113.288 8.91503 112.731 9.05798 112.13 9.36531C111.058 9.90136 110.479 10.8591 110.479 12.0884C110.479 13.8538 111.401 14.9616 113.231 15.3833C113.695 15.4905 114.089 15.512 115.304 15.5048C116.819 15.4977 117.283 15.4548 118.756 15.1832L119.563 15.0331L119.542 11.3737C119.513 7.90727 119.506 7.69285 119.363 7.1711C119.163 6.46351 118.999 6.15618 118.591 5.69876C118.177 5.24133 117.333 4.80534 116.54 4.6481C115.875 4.51945 114.089 4.51231 113.195 4.6481ZM116.576 10.8734C116.683 10.9091 116.697 11.0592 116.697 12.0455V13.182L116.297 13.232C115.675 13.3035 114.489 13.2248 114.139 13.0819C113.745 12.9247 113.502 12.6245 113.445 12.2314C113.338 11.5166 113.781 10.9806 114.617 10.8234C114.968 10.759 116.376 10.7948 116.576 10.8734Z" fill="#015488"/>
<path d="M124.524 4.61951C123.73 4.67668 122.765 4.86966 121.829 5.15555L121.2 5.34853V10.3445V15.3333H122.701H124.202V11.3022C124.202 7.5356 124.209 7.27115 124.331 7.22112C124.395 7.19253 124.824 7.14964 125.274 7.13535C125.924 7.10676 126.239 7.1282 126.804 7.24971C127.197 7.33547 127.525 7.39265 127.54 7.37836C127.59 7.32118 128.04 4.96257 127.997 4.94113C127.79 4.81963 125.739 4.51944 125.353 4.54803C125.288 4.55518 124.917 4.58377 124.524 4.61951Z" fill="#015488"/>
<path d="M84.27 8.37898C84.2915 11.5452 84.3129 12.0741 84.4201 12.5101C84.7989 14.0039 85.6137 14.8973 87.0003 15.3333C88.1653 15.7049 91.0671 15.562 93.0612 15.0402L93.3257 14.9688V9.86562V4.75531H91.8605H90.3953V8.82211C90.3953 11.195 90.3667 12.9104 90.3309 12.9318C90.2952 12.9604 89.9307 12.9961 89.5233 13.0176C87.958 13.1176 87.4148 12.6602 87.2505 11.1092C87.2147 10.7376 87.179 9.15804 87.179 7.59278V4.75531H85.7066H84.2415L84.27 8.37898Z" fill="#015488"/>
<path d="M48.4407 10.08V15.3333H49.9059H51.3711V10.08V4.82678H49.9059H48.4407V10.08Z" fill="#878787"/>
<path d="M0.306439 0.575042C0.165863 0.624081 0.064518 0.725426 0.0252875 0.859464C0.00240308 0.941194 -0.00413534 2.04619 0.00240308 4.2954C0.0154799 7.88172 0.0089415 7.70518 0.198556 8.6271C0.4274 9.7419 0.930858 10.9384 1.59124 11.929C3.1245 14.2305 5.48159 15.7049 8.23427 16.0842C8.74099 16.1528 9.98329 16.1659 10.5064 16.1038C13.8148 15.718 16.6459 13.6944 18.0713 10.6998C18.493 9.81055 18.7448 8.95075 18.8723 7.94057C18.9148 7.5973 18.9769 6.60346 18.9377 6.86173C18.7382 8.19556 18.5911 8.80364 18.2805 9.55882C17.6202 11.1673 16.4204 12.3834 14.6583 13.2367C12.2914 14.3776 9.75445 14.4267 7.37447 13.3707C4.74929 12.2036 3.37622 10.4415 2.90873 7.64634C2.73546 6.61 2.70931 6.00193 2.70931 3.25906C2.71258 0.565234 2.72565 0.715618 2.47065 0.597927C2.34642 0.54235 2.24835 0.535811 1.36893 0.539081C0.787013 0.539081 0.365285 0.555427 0.306439 0.575042Z" fill="#0062A0"/>
<path d="M16.2896 0.620808C16.2373 0.646961 16.1621 0.715615 16.1261 0.774461C16.0673 0.875806 16.064 0.986959 16.0444 4.49155C16.0281 7.71826 16.0215 8.13999 15.9692 8.44075C15.7894 9.51305 15.4887 10.2159 14.874 10.9907C14.1842 11.8636 13.3539 12.5273 12.3044 13.0405C11.8108 13.2857 11.0131 13.5734 10.6241 13.6486C10.2677 13.7173 10.4639 13.7565 11.0621 13.7336C12.1998 13.6911 13.2035 13.4524 14.2627 12.9719C15.165 12.5665 15.7044 12.1938 16.391 11.504C17.0023 10.8959 17.4796 10.2519 17.8261 9.56863C18.2315 8.77421 18.4996 7.55153 18.5977 6.04442C18.6598 5.10943 18.6075 1.10792 18.529 0.82023C18.5061 0.73523 18.4636 0.676384 18.3917 0.633884C18.2936 0.57177 18.2217 0.568501 17.339 0.568501C16.561 0.568501 16.3746 0.578308 16.2896 0.620808Z" fill="#878787"/>
<path d="M8.92077 0.754855C8.59385 0.794086 7.97924 0.9412 7.6752 1.04581C6.22041 1.54927 4.96503 2.64119 4.28177 3.99791C3.86331 4.82175 3.65735 5.72078 3.65735 6.6852C3.66062 7.91442 3.98427 8.99326 4.64792 9.98383C5.57964 11.3732 6.99194 12.2853 8.64943 12.5698C9.66615 12.743 10.8431 12.6188 11.8108 12.2363C13.1119 11.7198 14.2594 10.6998 14.874 9.50979L15.0407 9.18287L14.9002 9.34633C14.1973 10.1702 13.3179 10.7357 12.2554 11.0398C10.4867 11.5498 8.41731 11.1379 7.01809 9.99037C5.14157 8.46038 4.5335 5.73386 5.56983 3.52061C6.20079 2.17369 7.34175 1.31062 8.93385 0.973892C9.27058 0.90197 9.44711 0.885624 10.0977 0.869278C10.8627 0.849663 10.866 0.849663 10.6371 0.807163C10.4115 0.761394 9.15289 0.722163 8.92077 0.754855Z" fill="#0062A0"/>
<path d="M9.72503 0.928126C8.83581 1.02947 8.0087 1.31716 7.33197 1.76504C6.92332 2.03639 6.40025 2.56273 6.12891 2.97792C5.67775 3.66445 5.39333 4.49156 5.34103 5.24348L5.32141 5.52136L5.39987 5.32521C5.66468 4.67137 5.97198 4.18099 6.41333 3.71676C6.79582 3.31792 7.17505 3.03677 7.65236 2.79157C8.32254 2.45158 8.94696 2.30119 9.68907 2.30119C10.3985 2.30119 10.9543 2.43196 11.5493 2.736C11.9873 2.9583 12.3077 3.20349 12.7033 3.61868L13.0335 3.96849H14.0012C14.534 3.96849 14.9688 3.95541 14.9688 3.94234C14.9688 3.89003 14.57 3.32119 14.3477 3.05311C13.5075 2.0462 12.6216 1.42178 11.4871 1.03928C11.1341 0.918319 11.1177 0.918319 10.5554 0.908511C10.2416 0.905242 9.86561 0.91178 9.72503 0.928126Z" fill="#878787"/>
<path d="M13.125 9.25808C12.7915 9.83019 12.3338 10.3206 11.7977 10.6769L11.4544 10.9058L11.6179 10.8861C11.7094 10.8731 11.9513 10.8175 12.1573 10.7652C13.1642 10.5004 14.0959 9.99038 14.789 9.32347L15.0832 9.03904H14.1678L13.2525 9.03578L13.125 9.25808Z" fill="#878787"/>
<circle cx="9.83211" cy="6.50622" r="2.68484" fill="url(#paint0_radial_1_76)"/>
<defs>
<radialGradient id="paint0_radial_1_76" cx="0" cy="0" r="1" gradientUnits="userSpaceOnUse" gradientTransform="translate(10.6658 5.67257) rotate(135) scale(4.97589)">
<stop stop-color="#72C9F8"/>
<stop offset="0.567708" stop-color="#04568E"/>
</radialGradient>
</defs>
</svg>
