<svg width="19" height="17" viewBox="0 0 19 17" fill="none" xmlns="http://www.w3.org/2000/svg">
<path d="M0.306439 0.575042C0.165863 0.624081 0.064518 0.725426 0.0252875 0.859464C0.00240308 0.941194 -0.00413534 2.04619 0.00240308 4.2954C0.0154799 7.88172 0.0089415 7.70518 0.198556 8.6271C0.4274 9.7419 0.930858 10.9384 1.59124 11.929C3.1245 14.2305 5.48159 15.7049 8.23427 16.0842C8.74099 16.1528 9.98329 16.1659 10.5064 16.1038C13.8148 15.718 16.6459 13.6944 18.0713 10.6998C18.493 9.81055 18.7448 8.95075 18.8723 7.94057C18.9148 7.5973 18.9769 6.60346 18.9377 6.86173C18.7382 8.19556 18.5911 8.80364 18.2805 9.55882C17.6202 11.1673 16.4204 12.3834 14.6583 13.2367C12.2914 14.3776 9.75445 14.4267 7.37447 13.3707C4.74929 12.2036 3.37622 10.4415 2.90873 7.64634C2.73546 6.61 2.70931 6.00193 2.70931 3.25906C2.71258 0.565234 2.72565 0.715618 2.47065 0.597927C2.34642 0.54235 2.24835 0.535811 1.36893 0.539081C0.787013 0.539081 0.365285 0.555427 0.306439 0.575042Z" fill="#0062A0"/>
<path d="M16.2896 0.620808C16.2373 0.646961 16.1621 0.715615 16.1261 0.774461C16.0673 0.875806 16.064 0.986959 16.0444 4.49155C16.0281 7.71826 16.0215 8.13999 15.9692 8.44075C15.7894 9.51305 15.4887 10.2159 14.874 10.9907C14.1842 11.8636 13.3539 12.5273 12.3044 13.0405C11.8108 13.2857 11.0131 13.5734 10.6241 13.6486C10.2677 13.7173 10.4639 13.7565 11.0621 13.7336C12.1998 13.6911 13.2035 13.4524 14.2627 12.9719C15.165 12.5665 15.7044 12.1938 16.391 11.504C17.0023 10.8959 17.4796 10.2519 17.8261 9.56863C18.2315 8.77421 18.4996 7.55153 18.5977 6.04442C18.6598 5.10943 18.6075 1.10792 18.529 0.82023C18.5061 0.73523 18.4636 0.676384 18.3917 0.633884C18.2936 0.57177 18.2217 0.568501 17.339 0.568501C16.561 0.568501 16.3746 0.578308 16.2896 0.620808Z" fill="#878787"/>
<path d="M8.92077 0.754855C8.59385 0.794086 7.97924 0.9412 7.6752 1.04581C6.22041 1.54927 4.96503 2.64119 4.28177 3.99791C3.86331 4.82175 3.65735 5.72078 3.65735 6.6852C3.66062 7.91442 3.98427 8.99326 4.64792 9.98383C5.57964 11.3732 6.99194 12.2853 8.64943 12.5698C9.66615 12.743 10.8431 12.6188 11.8108 12.2363C13.1119 11.7198 14.2594 10.6998 14.874 9.50979L15.0407 9.18287L14.9002 9.34633C14.1973 10.1702 13.3179 10.7357 12.2554 11.0398C10.4867 11.5498 8.41731 11.1379 7.01809 9.99037C5.14157 8.46038 4.5335 5.73386 5.56983 3.52061C6.20079 2.17369 7.34175 1.31062 8.93385 0.973892C9.27058 0.90197 9.44711 0.885624 10.0977 0.869278C10.8627 0.849663 10.866 0.849663 10.6371 0.807163C10.4115 0.761394 9.15289 0.722163 8.92077 0.754855Z" fill="#0062A0"/>
<path d="M9.72503 0.928126C8.83581 1.02947 8.0087 1.31716 7.33197 1.76504C6.92332 2.03639 6.40025 2.56273 6.12891 2.97792C5.67775 3.66445 5.39333 4.49156 5.34103 5.24348L5.32141 5.52136L5.39987 5.32521C5.66468 4.67137 5.97198 4.18099 6.41333 3.71676C6.79582 3.31792 7.17505 3.03677 7.65236 2.79157C8.32254 2.45158 8.94696 2.30119 9.68907 2.30119C10.3985 2.30119 10.9543 2.43196 11.5493 2.736C11.9873 2.9583 12.3077 3.20349 12.7033 3.61868L13.0335 3.96849H14.0012C14.534 3.96849 14.9688 3.95541 14.9688 3.94234C14.9688 3.89003 14.57 3.32119 14.3477 3.05311C13.5075 2.0462 12.6216 1.42178 11.4871 1.03928C11.1341 0.918319 11.1177 0.918319 10.5554 0.908511C10.2416 0.905242 9.86561 0.91178 9.72503 0.928126Z" fill="#878787"/>
<path d="M13.125 9.25808C12.7915 9.83019 12.3338 10.3206 11.7977 10.6769L11.4544 10.9058L11.6179 10.8861C11.7094 10.8731 11.9513 10.8175 12.1573 10.7652C13.1642 10.5004 14.0959 9.99038 14.789 9.32347L15.0832 9.03904H14.1678L13.2525 9.03578L13.125 9.25808Z" fill="#878787"/>
<circle cx="9.83211" cy="6.50622" r="2.68484" fill="url(#paint0_radial_1_69)"/>
<defs>
<radialGradient id="paint0_radial_1_69" cx="0" cy="0" r="1" gradientUnits="userSpaceOnUse" gradientTransform="translate(10.6658 5.67257) rotate(135) scale(4.97589)">
<stop stop-color="#72C9F8"/>
<stop offset="0.567708" stop-color="#04568E"/>
</radialGradient>
</defs>
</svg>
