<svg width="254" height="32" viewBox="0 0 254 32" fill="none" xmlns="http://www.w3.org/2000/svg">
<path d="M98.0726 0.0613394C96.4576 0.472189 95.4659 1.74724 95.4517 3.41897C95.4375 6.57826 99.2769 8.03749 101.501 5.71406C103.059 4.099 102.45 1.15222 100.396 0.302182C99.7585 0.0330048 98.6252 -0.0803332 98.0726 0.0613394Z" fill="#878787"/>
<path d="M49.8332 11.0126C49.8332 23.0264 49.9324 24.2306 51.0091 26.4124C51.9016 28.24 53.6017 29.4583 56.1376 30.0959C59.4952 30.9459 65.3888 30.8892 70.0923 29.9684C70.914 29.8125 71.5941 29.685 71.6224 29.685C71.6366 29.685 71.6507 23.4089 71.6507 15.7303V1.77558H68.4631H65.2755V13.7327V25.6899L64.3263 25.8032C63.8162 25.8457 62.7112 25.8599 61.8895 25.8174C59.9061 25.7182 58.8577 25.3498 57.8518 24.429C56.9593 23.6073 56.5343 22.7431 56.3501 21.298C56.2793 20.7313 56.2084 16.042 56.2084 10.8709V1.49223H53.0208H49.8332V11.0126Z" fill="#878787"/>
<path d="M116.249 2.42723C114.634 2.66808 112.637 3.3481 111.319 4.0848C109.86 4.9065 107.749 7.00325 106.885 8.49081C105.241 11.3101 104.547 14.9652 104.93 18.7337C105.355 22.9414 106.899 26.1857 109.449 28.2116C110.497 29.0475 112.509 30.0108 113.94 30.3792C117.383 31.2717 122.044 31.045 125.642 29.8125C126.379 29.5716 127.541 29.0616 127.711 28.9199C127.781 28.8633 126.195 24.2448 126.081 24.1314C126.025 24.0748 125.472 24.2164 124.849 24.4573C123.149 25.1231 121.434 25.4348 119.437 25.4348C117.425 25.4348 116.547 25.279 115.328 24.7123C113.416 23.8056 112.042 21.9355 111.517 19.4846C111.163 17.8837 111.206 14.7811 111.588 13.3502C112.353 10.4459 114.28 8.46247 116.915 7.86745C117.808 7.66911 120.259 7.66911 121.42 7.86745C122.426 8.05162 123.815 8.47664 124.891 8.94416C125.288 9.12833 125.628 9.25584 125.628 9.2275C125.628 9.19917 126.01 8.10829 126.478 6.8049C126.945 5.50152 127.328 4.38231 127.328 4.32564C127.328 4.26897 126.832 3.99979 126.237 3.71645C123.347 2.41306 119.522 1.90305 116.249 2.42723Z" fill="#878787"/>
<path d="M81.4969 9.14259C79.726 9.2701 78.5785 9.44011 76.5101 9.86512L75.0508 10.1768V20.278V30.3934H77.8843H80.7177V22.3181C80.7177 14.9795 80.7461 14.2286 80.9444 14.1436C81.0719 14.1011 81.9786 14.0445 82.9703 14.0445C84.5571 14.0303 84.8262 14.0586 85.3504 14.342C86.0871 14.7386 86.4555 15.2203 86.7671 16.1412C86.9796 16.7787 87.0221 17.7138 87.0646 23.6215L87.1072 30.3934H90.0114H92.9157L92.8732 23.1398C92.8165 16.1979 92.8024 15.8154 92.5049 14.767C91.6832 11.806 89.7564 9.95012 86.8663 9.3551C85.5346 9.08592 83.3812 9.00092 81.4969 9.14259Z" fill="#878787"/>
<path d="M135.233 9.14252C133.972 9.4542 132.442 10.1767 131.507 10.8709C128.546 13.1235 127.016 17.0762 127.456 21.3688C127.654 23.2672 127.923 24.259 128.617 25.704C130.459 29.4583 134.695 31.3426 140.178 30.8325C142.09 30.6625 144.13 30.2659 145.15 29.8692C145.689 29.6708 145.745 29.6 145.689 29.2742C145.646 29.0758 145.476 28.0841 145.32 27.0641C145.15 26.044 144.995 25.1515 144.966 25.0523C144.924 24.9248 144.711 24.9531 144.145 25.1373C142.317 25.7748 139.101 26.044 137.373 25.7182C135.375 25.3357 133.859 24.0181 133.491 22.3605L133.392 21.893H140.121H146.836L146.935 20.6463C147.077 18.6771 146.794 16.4103 146.185 14.6252C145.575 12.8827 144.145 11.1259 142.586 10.2192C141.155 9.3692 140.05 9.11419 137.812 9.05752C136.678 9.02919 135.517 9.07169 135.233 9.14252ZM138.903 14.0302C140.121 14.5402 140.914 15.6028 141.184 17.0337L141.311 17.7845H137.358H133.42L133.505 17.3878C134.015 15.0361 135.347 13.8177 137.429 13.8177C137.968 13.8177 138.605 13.9169 138.903 14.0302Z" fill="#878787"/>
<path d="M154.671 9.22748C152.602 9.66666 150.69 11.0125 149.939 12.5709C149.174 14.1577 149.174 16.5236 149.925 18.167C150.676 19.8104 151.965 20.7029 155.96 22.318C158.51 23.3522 159.261 24.0606 158.907 25.1089C158.68 25.8315 158.127 26.044 156.371 26.1148C154.642 26.1856 152.886 25.9165 151.016 25.3214L149.755 24.9106L149.287 27.234C149.004 28.6224 148.862 29.5999 148.947 29.685C149.018 29.7558 149.769 30.0108 150.619 30.2375C154.401 31.3 158.963 31.13 161.698 29.8266C164.035 28.7074 165.154 26.3982 164.744 23.5505C164.361 20.7879 163.1 19.6121 158.524 17.742C155.988 16.6936 155.422 16.3536 155.223 15.6736C155.011 14.9794 155.252 14.441 155.946 14.0443C156.385 13.7752 156.668 13.7468 158.354 13.761C159.998 13.7752 160.451 13.8318 161.528 14.1577C162.222 14.3702 162.817 14.4977 162.859 14.4694C162.987 14.3418 163.894 10.2192 163.823 10.0492C163.752 9.87917 161.839 9.36915 160.338 9.14247C159.02 8.94413 155.762 8.98663 154.671 9.22748Z" fill="#878787"/>
<path d="M193.914 9.15676C193.177 9.22759 191.633 9.4826 190.471 9.70928C189.324 9.95012 188.36 10.1343 188.318 10.1343C188.275 10.1343 188.247 14.6961 188.247 20.2639V30.3934H191.151H194.056V22.3323V14.2711L194.509 14.172C194.75 14.1153 195.501 14.0586 196.166 14.0586C198.065 14.0445 198.83 14.5545 199.382 16.2262C199.609 16.9204 199.637 17.6996 199.694 23.6923L199.737 30.3934H202.641H205.531V23.5648C205.531 19.1305 205.474 16.4245 205.375 15.8295C205.177 14.7386 205.248 14.6678 206.523 14.2853C208.067 13.8178 209.526 14.087 210.277 14.9795C211.07 15.9287 211.113 16.2687 211.17 23.6215L211.212 30.3934H214.201H217.176L217.106 23.2673C217.049 16.8212 217.021 16.042 216.751 14.8662C216.256 12.5852 215.292 11.1118 213.691 10.1485C212.402 9.38343 211.269 9.11426 209.144 9.08592C206.962 9.07175 205.729 9.3551 203.888 10.3326L202.74 10.9418L202.4 10.6585C201.904 10.2618 200.615 9.63844 199.722 9.36927C198.759 9.07175 195.798 8.95842 193.914 9.15676Z" fill="#878787"/>
<path d="M224.373 9.21335C222.659 9.4542 220.973 9.85088 220.973 9.99255C220.973 10.0634 221.129 11.1118 221.327 12.316C221.526 13.5202 221.682 14.5402 221.682 14.5686C221.682 14.5969 222.092 14.5119 222.603 14.3702C224.869 13.7469 228.269 13.6619 229.474 14.2002C230.649 14.7244 231.315 15.8011 231.315 17.2037C231.315 17.7279 231.273 17.7987 231.075 17.7137C230.479 17.5012 227.759 17.3737 226.371 17.5012C224.558 17.6712 223.453 17.9545 222.262 18.5637C220.137 19.6263 218.99 21.5247 218.99 23.9614C218.99 27.4607 220.817 29.6567 224.444 30.4925C225.365 30.705 226.144 30.7475 228.553 30.7334C231.556 30.7192 232.477 30.6342 235.396 30.0958L236.996 29.7983L236.954 22.5447C236.897 15.6736 236.883 15.2486 236.6 14.2144C236.203 12.8118 235.877 12.2026 235.07 11.2959C234.248 10.3892 232.576 9.52503 231.004 9.21335C229.686 8.95834 226.144 8.94418 224.373 9.21335ZM231.075 21.553C231.287 21.6238 231.315 21.9214 231.315 23.8764V26.129L230.522 26.2282C229.289 26.3699 226.938 26.214 226.243 25.9307C225.464 25.619 224.983 25.024 224.869 24.2448C224.657 22.8281 225.535 21.7655 227.193 21.4538C227.887 21.3263 230.678 21.3972 231.075 21.553Z" fill="#878787"/>
<path d="M246.828 9.15676C245.256 9.2701 243.343 9.65261 241.487 10.2193L240.241 10.6018V20.5047V30.3934H243.216H246.191V22.4031C246.191 14.937 246.205 14.4128 246.446 14.3136C246.573 14.257 247.424 14.172 248.316 14.1436C249.605 14.087 250.229 14.1295 251.348 14.3703C252.127 14.5403 252.779 14.6536 252.807 14.6253C252.906 14.512 253.799 9.83679 253.714 9.79429C253.303 9.55344 249.237 8.95842 248.472 9.01509C248.344 9.02926 247.608 9.08592 246.828 9.15676Z" fill="#878787"/>
<path d="M167.039 16.6087C167.081 22.8848 167.124 23.9332 167.336 24.7974C168.087 27.7583 169.702 29.5292 172.451 30.3934C174.76 31.1301 180.512 30.8468 184.464 29.8126L184.989 29.6709V19.5555V9.42593H182.084H179.18V17.4871C179.18 22.1906 179.123 25.5907 179.053 25.6332C178.982 25.6899 178.259 25.7607 177.452 25.8032C174.349 26.0016 173.272 25.0949 172.946 22.0206C172.876 21.2839 172.805 18.1529 172.805 15.0503V9.42593H169.886H166.982L167.039 16.6087Z" fill="#878787"/>
<path d="M96.0184 19.9805V30.3934H98.9227H101.827V19.9805V9.56761H98.9227H96.0184V19.9805Z" fill="#878787"/>
<path d="M0.607419 1.13981C0.328772 1.23701 0.127887 1.43789 0.0501245 1.70358C0.00476334 1.86559 -0.00819699 4.05588 0.00476334 8.51424C0.030684 15.623 0.0177237 15.2731 0.393573 17.1005C0.847185 19.3102 1.84513 21.6819 3.15413 23.6454C6.19332 28.2075 10.8655 31.13 16.3218 31.8817C17.3263 32.0178 19.7887 32.0437 20.8255 31.9206C27.3835 31.1559 32.9953 27.1447 35.8207 21.2089C36.6566 19.4463 37.1556 17.742 37.4083 15.7396C37.4925 15.0592 37.6157 13.0892 37.5379 13.6012C37.1426 16.2451 36.851 17.4504 36.2354 18.9473C34.9264 22.1356 32.5482 24.5462 29.0554 26.2375C24.3637 28.4991 19.3351 28.5963 14.6175 26.5032C9.41397 24.1898 6.6923 20.697 5.76563 15.1564C5.42218 13.1022 5.37034 11.8969 5.37034 6.46002C5.37682 1.12037 5.40274 1.41845 4.89729 1.18517C4.65104 1.075 4.45664 1.06204 2.71347 1.06852C1.56 1.06852 0.724062 1.10093 0.607419 1.13981Z" fill="#0062A0"/>
<path d="M32.2889 1.23067C32.1853 1.28251 32.0362 1.41859 31.9649 1.53524C31.8483 1.73612 31.8418 1.95645 31.8029 8.90319C31.7705 15.2991 31.7576 16.1351 31.6539 16.7312C31.2975 18.8567 30.7013 20.25 29.483 21.7858C28.1157 23.516 26.4698 24.8314 24.3896 25.8488C23.4111 26.3348 21.83 26.9051 21.0588 27.0541C20.3525 27.1902 20.7413 27.268 21.9272 27.2226C24.1823 27.1384 26.1717 26.6653 28.2712 25.7127C30.0598 24.9092 31.129 24.1705 32.4898 22.8031C33.7016 21.5978 34.6477 20.3212 35.3346 18.9669C36.1382 17.3922 36.6695 14.9686 36.8639 11.9813C36.9871 10.1279 36.8834 2.19621 36.7279 1.62596C36.6825 1.45747 36.5983 1.34083 36.4557 1.25659C36.2613 1.13346 36.1187 1.12699 34.3691 1.12699C32.8268 1.12699 32.4574 1.14643 32.2889 1.23067Z" fill="#878787"/>
<path d="M17.6827 1.4963C17.0347 1.57406 15.8164 1.86567 15.2138 2.07303C12.3301 3.07098 9.8417 5.23535 8.48735 7.92462C7.65788 9.55763 7.24963 11.3397 7.24963 13.2513C7.25611 15.6879 7.89765 17.8263 9.21312 19.7898C11.06 22.5439 13.8594 24.3519 17.1449 24.9156C19.1602 25.2591 21.493 25.0128 23.4112 24.2546C25.9903 23.2308 28.2648 21.209 29.4831 18.8502L29.8136 18.2022L29.5349 18.5262C28.1417 20.1592 26.3985 21.2803 24.2925 21.8829C20.7867 22.8938 16.6848 22.0773 13.9112 19.8028C10.1916 16.7701 8.98632 11.3656 11.0405 6.97852C12.2912 4.30869 14.5528 2.59793 17.7086 1.93047C18.3761 1.7879 18.726 1.7555 20.0156 1.7231C21.5319 1.68422 21.5384 1.68422 21.0848 1.59998C20.6377 1.50926 18.1428 1.4315 17.6827 1.4963Z" fill="#0062A0"/>
<path d="M19.2768 1.83982C17.5142 2.04071 15.8747 2.61096 14.5333 3.49874C13.7233 4.0366 12.6865 5.07991 12.1486 5.90289C11.2544 7.26372 10.6906 8.9032 10.5869 10.3936L10.548 10.9445L10.7036 10.5556C11.2285 9.25961 11.8376 8.28759 12.7124 7.3674C13.4706 6.57682 14.2223 6.01953 15.1684 5.53352C16.4968 4.85958 17.7345 4.56149 19.2055 4.56149C20.6117 4.56149 21.7134 4.8207 22.8928 5.42335C23.7611 5.86401 24.3962 6.35002 25.1803 7.173L25.8348 7.86638H27.7529C28.8092 7.86638 29.671 7.84046 29.671 7.81454C29.671 7.71085 28.8804 6.5833 28.4398 6.05193C26.7744 4.05604 25.0183 2.81833 22.7696 2.06015C22.0698 1.82038 22.0374 1.82038 20.9228 1.80094C20.3007 1.79446 19.5555 1.80742 19.2768 1.83982Z" fill="#878787"/>
<path d="M26.0161 18.3513C25.3552 19.4853 24.4479 20.4574 23.3852 21.1637L22.7048 21.6173L23.0288 21.5784C23.2102 21.5525 23.6898 21.4423 24.098 21.3387C26.0939 20.8138 27.9407 19.8029 29.3145 18.4809L29.8978 17.9171H28.0833L26.2689 17.9107L26.0161 18.3513Z" fill="#878787"/>
<circle cx="19.489" cy="12.8965" r="5.32184" fill="url(#paint0_radial_14_57)"/>
<defs>
<radialGradient id="paint0_radial_14_57" cx="0" cy="0" r="1" gradientUnits="userSpaceOnUse" gradientTransform="translate(21.1415 11.2441) rotate(135) scale(9.86312)">
<stop stop-color="#72C9F8"/>
<stop offset="0.567708" stop-color="#04568E"/>
</radialGradient>
</defs>
</svg>
