<svg width="25" height="25" viewBox="0 0 25 25" fill="none" xmlns="http://www.w3.org/2000/svg">
<path d="M19.06 4.29905C18.7651 4.29905 18.4768 4.3865 18.2316 4.55033C17.9864 4.71416 17.7953 4.94702 17.6824 5.21947C17.5696 5.49191 17.5401 5.7917 17.5976 6.08093C17.6551 6.37016 17.7971 6.63583 18.0057 6.84435C18.2142 7.05287 18.4798 7.19487 18.7691 7.2524C19.0583 7.30993 19.3581 7.28041 19.6305 7.16755C19.903 7.0547 20.1358 6.8636 20.2997 6.61841C20.4635 6.37321 20.551 6.08494 20.551 5.79005C20.551 5.39461 20.3939 5.01537 20.1142 4.73575C19.8346 4.45614 19.4554 4.29905 19.06 4.29905ZM24.7755 7.3059C24.7513 6.275 24.5582 5.25503 24.2039 4.28662C23.888 3.45804 23.3963 2.70775 22.7626 2.0874C22.1473 1.45053 21.3953 0.961914 20.5634 0.658525C19.5975 0.29343 18.5764 0.0959334 17.5441 0.0745499C16.2271 -6.94301e-08 15.8046 0 12.425 0C9.0454 0 8.62295 -6.94301e-08 7.3059 0.0745499C6.27357 0.0959334 5.25247 0.29343 4.28662 0.658525C3.45623 0.964986 2.70484 1.45318 2.0874 2.0874C1.45053 2.70266 0.961914 3.4547 0.658525 4.28662C0.29343 5.25247 0.0959334 6.27357 0.0745499 7.3059C-6.94301e-08 8.62295 0 9.0454 0 12.425C0 15.8046 -6.94301e-08 16.2271 0.0745499 17.5441C0.0959334 18.5764 0.29343 19.5975 0.658525 20.5634C0.961914 21.3953 1.45053 22.1473 2.0874 22.7626C2.70484 23.3968 3.45623 23.885 4.28662 24.1915C5.25247 24.5566 6.27357 24.7541 7.3059 24.7755C8.62295 24.85 9.0454 24.85 12.425 24.85C15.8046 24.85 16.2271 24.85 17.5441 24.7755C18.5764 24.7541 19.5975 24.5566 20.5634 24.1915C21.3953 23.8881 22.1473 23.3995 22.7626 22.7626C23.3991 22.1446 23.8912 21.3936 24.2039 20.5634C24.5582 19.595 24.7513 18.575 24.7755 17.5441C24.7755 16.2271 24.85 15.8046 24.85 12.425C24.85 9.0454 24.85 8.62295 24.7755 7.3059ZM22.5389 17.395C22.5299 18.1837 22.3871 18.9652 22.1165 19.7061C21.9181 20.2468 21.5995 20.7354 21.1846 21.1349C20.7816 21.5456 20.294 21.8636 19.7558 22.0668C19.0149 22.3374 18.2334 22.4802 17.4447 22.4893C16.2022 22.5514 15.7425 22.5638 12.4747 22.5638C9.20693 22.5638 8.7472 22.5638 7.5047 22.4893C6.68576 22.5046 5.87031 22.3785 5.09425 22.1165C4.57958 21.9029 4.11436 21.5857 3.7275 21.1846C3.3151 20.7855 3.00044 20.2965 2.80805 19.7558C2.5047 19.0042 2.33645 18.205 2.31105 17.395C2.31105 16.1525 2.2365 15.6928 2.2365 12.425C2.2365 9.15723 2.2365 8.6975 2.31105 7.455C2.31662 6.64869 2.46382 5.84962 2.74593 5.09425C2.96466 4.5698 3.30041 4.10231 3.7275 3.7275C4.10499 3.30029 4.57152 2.961 5.09425 2.7335C5.85162 2.4602 6.64986 2.31736 7.455 2.31105C8.6975 2.31105 9.15723 2.2365 12.425 2.2365C15.6928 2.2365 16.1525 2.2365 17.395 2.31105C18.1837 2.3201 18.9652 2.46294 19.7061 2.7335C20.2707 2.94305 20.7775 3.28374 21.1846 3.7275C21.5918 4.10917 21.9099 4.5758 22.1165 5.09425C22.3927 5.85085 22.5356 6.64959 22.5389 7.455C22.6011 8.6975 22.6135 9.15723 22.6135 12.425C22.6135 15.6928 22.6011 16.1525 22.5389 17.395ZM12.425 6.05098C11.1649 6.05343 9.93374 6.42935 8.88717 7.13123C7.84061 7.83311 7.02557 8.82945 6.54504 9.99436C6.06451 11.1593 5.94005 12.4405 6.18739 13.6761C6.43474 14.9117 7.04278 16.0463 7.9347 16.9365C8.82662 17.8267 9.96238 18.4325 11.1985 18.6774C12.4346 18.9224 13.7155 18.7954 14.8795 18.3126C16.0435 17.8298 17.0383 17.0129 17.7381 15.9649C18.4379 14.917 18.8114 13.6851 18.8115 12.425C18.8131 11.5864 18.6489 10.7558 18.3284 9.98095C18.0079 9.20606 17.5373 8.50219 16.9438 7.90982C16.3503 7.31745 15.6455 6.84826 14.87 6.52925C14.0945 6.21024 13.2636 6.0477 12.425 6.05098ZM12.425 16.5625C11.6067 16.5625 10.8067 16.3199 10.1263 15.8652C9.4459 15.4106 8.91559 14.7644 8.60243 14.0084C8.28927 13.2523 8.20733 12.4204 8.36698 11.6178C8.52662 10.8152 8.92068 10.078 9.49933 9.49933C10.078 8.92068 10.8152 8.52662 11.6178 8.36698C12.4204 8.20733 13.2523 8.28927 14.0084 8.60243C14.7644 8.91559 15.4106 9.4459 15.8652 10.1263C16.3199 10.8067 16.5625 11.6067 16.5625 12.425C16.5625 12.9683 16.4555 13.5064 16.2476 14.0084C16.0396 14.5104 15.7349 14.9665 15.3507 15.3507C14.9665 15.7349 14.5104 16.0396 14.0084 16.2476C13.5064 16.4555 12.9683 16.5625 12.425 16.5625Z" fill="white"/>
</svg>
