<svg width="25" height="25" viewBox="0 0 25 25" fill="none" xmlns="http://www.w3.org/2000/svg">
<path d="M18.4667 8.66129C17.4277 8.66085 16.4047 8.91786 15.4893 9.40934C15.4057 9.18931 15.2572 8.99992 15.0635 8.86631C14.8698 8.73269 14.6399 8.66119 14.4046 8.66129H9.76221C9.60977 8.66121 9.45881 8.69117 9.31796 8.74946C9.17711 8.80776 9.04913 8.89324 8.94134 9.00103C8.83356 9.10882 8.74807 9.2368 8.68977 9.37765C8.63148 9.5185 8.60152 9.66946 8.60161 9.82189V23.7491C8.60152 23.9015 8.63148 24.0525 8.68977 24.1933C8.74807 24.3342 8.83355 24.4622 8.94134 24.57C9.04913 24.6777 9.17711 24.7632 9.31796 24.8215C9.45881 24.8798 9.60977 24.9098 9.76221 24.9097H14.4046C14.557 24.9098 14.708 24.8798 14.8489 24.8215C14.9897 24.7632 15.1177 24.6777 15.2255 24.57C15.3333 24.4622 15.4187 24.3342 15.477 24.1933C15.5353 24.0525 15.5653 23.9015 15.5652 23.7491V17.3658C15.5652 17.058 15.6875 16.7628 15.9051 16.5451C16.1228 16.3275 16.418 16.2052 16.7258 16.2052C17.0336 16.2052 17.3288 16.3275 17.5465 16.5451C17.7641 16.7628 17.8864 17.058 17.8864 17.3658V23.7491C17.8863 23.9015 17.9163 24.0525 17.9746 24.1933C18.0329 24.3342 18.1183 24.4622 18.2261 24.57C18.3339 24.6777 18.4619 24.7632 18.6028 24.8215C18.7436 24.8798 18.8946 24.9098 19.047 24.9097H23.6894C23.8418 24.9098 23.9928 24.8798 24.1336 24.8215C24.2745 24.7632 24.4025 24.6777 24.5103 24.57C24.6181 24.4622 24.7035 24.3342 24.7618 24.1933C24.8201 24.0525 24.8501 23.9015 24.85 23.7491V15.0446C24.8479 13.3523 24.1747 11.7299 22.9781 10.5332C21.7814 9.3366 20.159 8.6634 18.4667 8.66129ZM22.5288 22.5885H20.2076V17.3658C20.2076 16.4424 19.8408 15.5568 19.1878 14.9038C18.5348 14.2508 17.6492 13.884 16.7258 13.884C15.8024 13.884 14.9168 14.2508 14.2638 14.9038C13.6108 15.5568 13.244 16.4424 13.244 17.3658V22.5885H10.9228V10.9825H13.244V11.7985C13.2441 12.039 13.3189 12.2735 13.4581 12.4697C13.5972 12.6658 13.7938 12.8139 14.0207 12.8935C14.2476 12.9732 14.4937 12.9804 14.7248 12.9141C14.956 12.8479 15.161 12.7116 15.3113 12.5239C15.8322 11.8624 16.5466 11.3801 17.3548 11.1442C18.1631 10.9084 19.0248 10.9309 19.8196 11.2085C20.6145 11.4861 21.3028 12.005 21.7885 12.6927C22.2742 13.3804 22.533 14.2027 22.5288 15.0446V22.5885ZM6.28041 8.66129H1.63801C1.48557 8.66121 1.33461 8.69117 1.19376 8.74946C1.05291 8.80776 0.924937 8.89324 0.817148 9.00103C0.709359 9.10882 0.623873 9.2368 0.565578 9.37765C0.507284 9.5185 0.477323 9.66946 0.47741 9.82189V23.7491C0.477322 23.9015 0.507281 24.0525 0.565575 24.1933C0.623869 24.3342 0.709355 24.4622 0.817144 24.57C0.924934 24.6777 1.05291 24.7632 1.19376 24.8215C1.33461 24.8798 1.48557 24.9098 1.63801 24.9097H6.28041C6.43284 24.9098 6.5838 24.8798 6.72465 24.8215C6.8655 24.7632 6.99348 24.6777 7.10127 24.57C7.20906 24.4622 7.29455 24.3342 7.35284 24.1933C7.41114 24.0525 7.4411 23.9015 7.44101 23.7491V9.82189C7.44109 9.66946 7.41113 9.5185 7.35284 9.37765C7.29454 9.2368 7.20906 9.10882 7.10127 9.00103C6.99348 8.89324 6.8655 8.80776 6.72465 8.74946C6.5838 8.69117 6.43284 8.66121 6.28041 8.66129ZM5.11981 22.5885H2.79861V10.9825H5.11981V22.5885ZM3.97621 0.00670416C3.46829 -0.0236996 2.95949 0.049527 2.48075 0.221931C2.00202 0.394335 1.56335 0.662313 1.19143 1.00957C0.819512 1.35683 0.522111 1.7761 0.317315 2.2419C0.11252 2.7077 0.00460844 3.21029 0.000144407 3.7191C-0.00431963 4.22792 0.0947567 4.73232 0.291348 5.20164C0.48794 5.67096 0.777938 6.0954 1.14371 6.44912C1.50948 6.80285 1.94337 7.07849 2.41901 7.25926C2.89465 7.44004 3.40208 7.52218 3.91046 7.5007H3.94333C4.4526 7.53094 4.96269 7.45704 5.44243 7.28349C5.92216 7.10994 6.36148 6.8404 6.73353 6.49133C7.10558 6.14226 7.40254 5.721 7.60629 5.25329C7.81003 4.78557 7.91626 4.28122 7.9185 3.77106C7.92073 3.2609 7.81893 2.75564 7.6193 2.28616C7.41967 1.81667 7.12641 1.39282 6.75744 1.0405C6.38846 0.688185 5.95153 0.414799 5.47333 0.237051C4.99513 0.0593018 4.48572 -0.0190767 3.97621 0.00670416ZM3.94334 5.1795H3.91046C3.70976 5.20387 3.50616 5.18504 3.31332 5.12428C3.12049 5.06353 2.94287 4.96224 2.79239 4.82721C2.64191 4.69219 2.52204 4.52655 2.44081 4.3414C2.35959 4.15625 2.31889 3.95588 2.32145 3.75371C2.32145 2.88779 2.97089 2.32789 3.97621 2.32789C4.17897 2.30086 4.38516 2.3176 4.5809 2.37697C4.77664 2.43634 4.95739 2.53696 5.11097 2.67207C5.26455 2.80718 5.38739 2.97363 5.47122 3.16021C5.55506 3.34679 5.59793 3.54917 5.59697 3.75371C5.59697 4.61962 4.94753 5.1795 3.94334 5.1795Z" fill="white"/>
</svg>
