<svg width="27" height="25" viewBox="0 0 27 25" fill="none" xmlns="http://www.w3.org/2000/svg">
<path d="M26.1367 9.45679C26.0541 9.21768 25.904 9.00766 25.7044 8.85219C25.5049 8.69672 25.2645 8.6025 25.0124 8.58093L17.5742 7.49592L14.2407 0.737433C14.1337 0.516415 13.9665 0.330018 13.7584 0.199596C13.5504 0.0691731 13.3097 0 13.0642 0C12.8186 0 12.578 0.0691731 12.3699 0.199596C12.1618 0.330018 11.9947 0.516415 11.8876 0.737433L8.55416 7.48284L1.11591 8.58093C0.873965 8.61532 0.646506 8.71684 0.459342 8.87396C0.272177 9.03109 0.132803 9.23753 0.057035 9.46986C-0.0123212 9.6969 -0.018545 9.93853 0.0390313 10.1688C0.0966076 10.3991 0.215811 10.6094 0.383848 10.7771L5.78279 16.0061L4.47554 23.4313C4.42887 23.6764 4.45331 23.9297 4.54596 24.1613C4.63862 24.393 4.79563 24.5933 4.99844 24.7385C5.19612 24.8799 5.42928 24.9633 5.67174 24.9795C5.9142 24.9956 6.15636 24.9439 6.37105 24.8301L13.0642 21.3397L19.7311 24.8431C19.9146 24.9466 20.1218 25.0007 20.3325 25C20.6094 25.001 20.8795 24.914 21.1038 24.7516C21.3066 24.6063 21.4636 24.406 21.5562 24.1744C21.6489 23.9428 21.6733 23.6894 21.6267 23.4444L20.3194 16.0192L25.7184 10.7902C25.9071 10.6303 26.0466 10.4201 26.1206 10.1841C26.1947 9.94805 26.2002 9.69585 26.1367 9.45679ZM18.0971 14.6858C17.9438 14.8341 17.8291 15.0176 17.763 15.2204C17.6969 15.4232 17.6815 15.6391 17.718 15.8492L18.6592 21.3266L13.7439 18.7121C13.5548 18.6114 13.3438 18.5587 13.1295 18.5587C12.9153 18.5587 12.7043 18.6114 12.5151 18.7121L7.59987 21.3266L8.54109 15.8492C8.57761 15.6391 8.56215 15.4232 8.49607 15.2204C8.42999 15.0176 8.3153 14.8341 8.16199 14.6858L4.24024 10.764L9.74376 9.96662C9.95553 9.93716 10.1568 9.85621 10.3301 9.73086C10.5033 9.60551 10.6431 9.43958 10.7373 9.24763L13.0642 4.26701L15.5218 9.2607C15.616 9.45266 15.7558 9.61858 15.929 9.74393C16.1022 9.86928 16.3035 9.95023 16.5153 9.97969L22.0188 10.7771L18.0971 14.6858Z" fill="white"/>
</svg>
