<svg width="25" height="25" viewBox="0 0 25 25" fill="none" xmlns="http://www.w3.org/2000/svg">
<path d="M18.2272 15.0125C17.9775 14.8876 16.3546 14.1386 16.1049 14.0137C15.8552 13.8889 15.6055 13.8889 15.3558 14.1386C15.1061 14.3883 14.6067 15.1373 14.3571 15.387C14.2322 15.6367 13.9825 15.6367 13.7328 15.5119C12.8589 15.1373 11.985 14.638 11.236 14.0137C10.6117 13.3895 9.98752 12.6404 9.48814 11.8914C9.3633 11.6417 9.48814 11.392 9.61298 11.2672C9.73783 11.1423 9.86267 10.8926 10.1124 10.7678C10.2372 10.6429 10.362 10.3933 10.362 10.2684C10.4869 10.1436 10.4869 9.89388 10.362 9.76904C10.2372 9.64419 9.61298 8.14607 9.3633 7.52185C9.23845 6.64794 8.98876 6.64794 8.73908 6.64794H8.11486C7.86517 6.64794 7.49064 6.89763 7.36579 7.02247C6.61673 7.77154 6.2422 8.64544 6.2422 9.64419C6.36704 10.7678 6.74157 11.8914 7.49064 12.8901C8.86392 14.8876 10.6117 16.5106 12.7341 17.5094C13.3583 17.7591 13.8577 18.0087 14.4819 18.1336C15.1061 18.3833 15.7303 18.3833 16.4794 18.2584C17.3533 18.1336 18.1024 17.5094 18.6017 16.7603C18.8514 16.2609 18.8514 15.7615 18.7266 15.2622L18.2272 15.0125ZM21.3483 3.65169C16.4794 -1.21723 8.61423 -1.21723 3.74532 3.65169C-0.249688 7.64669 -0.998751 13.764 1.74782 18.633L0 25L6.61673 23.2522C8.48939 24.2509 10.4869 24.7503 12.4844 24.7503C19.3508 24.7503 24.8439 19.2572 24.8439 12.3908C24.9688 9.14482 23.5955 6.02372 21.3483 3.65169ZM17.9775 21.1298C16.3546 22.1286 14.4819 22.7528 12.4844 22.7528C10.6117 22.7528 8.86392 22.2534 7.24095 21.3795L6.86642 21.1298L2.99625 22.1286L3.99501 18.3833L3.74532 18.0087C0.749064 13.015 2.24719 6.77278 7.1161 3.65169C11.985 0.530587 18.2272 2.15356 21.2235 6.89763C24.2197 11.7665 22.8464 18.1336 17.9775 21.1298Z" fill="white"/>
</svg>
