<svg width="25" height="20" viewBox="0 0 25 20" fill="none" xmlns="http://www.w3.org/2000/svg">
<path d="M23.774 13.8853L24.6303 12.9447C24.746 12.822 24.8382 12.6752 24.9017 12.5129C24.9652 12.3506 24.9986 12.1761 25 11.9994C25.0014 11.8228 24.9707 11.6476 24.9099 11.4841C24.849 11.3206 24.759 11.1721 24.6453 11.0472C24.5316 10.9223 24.3964 10.8235 24.2475 10.7566C24.0987 10.6898 23.9392 10.6561 23.7784 10.6576C23.6176 10.6592 23.4587 10.6959 23.3109 10.7656C23.1631 10.8353 23.0295 10.9366 22.9178 11.0637L22.0615 12.0042L23.774 13.8853Z" fill="white"/>
<path d="M21.2047 12.9447L16.9234 17.648L16.4946 20L18.6359 19.5291L22.9178 14.8265L21.2047 12.9447Z" fill="white"/>
<path d="M22.6299 5.37825L12.0221 0.104635C11.7443 -0.0348784 11.4412 -0.0348784 11.1887 0.104635L0.580902 5.37825C0.252566 5.57357 0 5.9363 0 6.38275C0 6.80129 0.252566 7.19193 0.606158 7.38724L1.5154 7.86159V11.768C1.5154 12.1586 1.79322 12.4655 2.14681 12.4655C2.5004 12.4655 2.77823 12.1586 2.77823 11.768V8.58706L4.29362 9.47995V14.2234C4.29362 14.4187 4.34414 14.5861 4.44516 14.7536C4.54619 14.921 6.84454 18.7157 11.4918 18.7157C16.2653 18.7157 18.4626 14.8931 18.5636 14.7536C18.6394 14.614 18.7151 14.4187 18.7151 14.2513V9.61946L22.7309 7.35934C23.0845 7.16402 23.2866 6.77338 23.2866 6.35484C23.2361 5.9363 22.9835 5.57357 22.6299 5.37825ZM16.9219 13.9165C16.4168 14.5861 14.6993 16.7626 11.4918 16.7626C8.35994 16.7626 6.56672 14.614 6.06158 13.9165V10.4565L11.1634 13.3305C11.315 13.4142 11.4665 13.4421 11.618 13.4421C11.7696 13.4421 11.9464 13.4142 12.0979 13.3305L16.9219 10.624V13.9165ZM11.618 11.0983L3.33387 6.46645L11.618 2.33685L19.9022 6.46645L11.618 11.0983ZM2.77823 13.4142C2.95502 13.6095 3.08131 13.9165 3.08131 14.1955C3.08131 14.4745 2.98028 14.7815 2.77823 14.9768C2.60143 15.1721 2.32361 15.3116 2.07104 15.3116C1.81848 15.3116 1.54065 15.2 1.36386 14.9768C1.18706 14.7815 1.06078 14.4745 1.06078 14.1955C1.06078 13.9165 1.1618 13.6095 1.36386 13.4142C1.54065 13.2189 1.81848 13.0794 2.07104 13.0794C2.32361 13.0794 2.57617 13.191 2.77823 13.4142Z" fill="white"/>
</svg>
