<svg width="14" height="14" viewBox="0 0 14 14" fill="none" xmlns="http://www.w3.org/2000/svg">
<path d="M12.25 0H3.5C2.57174 0 1.6815 0.294999 1.02513 0.820101C0.368749 1.3452 0 2.05739 0 2.8V11.2C0 11.9426 0.368749 12.6548 1.02513 13.1799C1.6815 13.705 2.57174 14 3.5 14H12.25C12.7141 14 13.1592 13.8525 13.4874 13.5899C13.8156 13.3274 14 12.9713 14 12.6V1.4C14 1.0287 13.8156 0.672601 13.4874 0.41005C13.1592 0.1475 12.7141 0 12.25 0ZM1.75 2.8C1.75 2.4287 1.93437 2.0726 2.26256 1.81005C2.59075 1.5475 3.03587 1.4 3.5 1.4H12.25V8.4H3.5C2.88316 8.40207 2.27849 8.53751 1.75 8.792V2.8ZM3.5 12.6C3.03587 12.6 2.59075 12.4525 2.26256 12.1899C1.93437 11.9274 1.75 11.5713 1.75 11.2C1.75 10.8287 1.93437 10.4726 2.26256 10.2101C2.59075 9.9475 3.03587 9.8 3.5 9.8H12.25V12.6H3.5ZM5.25 4.2H8.75C8.98206 4.2 9.20462 4.12625 9.36872 3.99497C9.53281 3.8637 9.625 3.68565 9.625 3.5C9.625 3.31435 9.53281 3.1363 9.36872 3.00503C9.20462 2.87375 8.98206 2.8 8.75 2.8H5.25C5.01794 2.8 4.79538 2.87375 4.63128 3.00503C4.46719 3.1363 4.375 3.31435 4.375 3.5C4.375 3.68565 4.46719 3.8637 4.63128 3.99497C4.79538 4.12625 5.01794 4.2 5.25 4.2Z" fill="#878787"/>
</svg>
