<svg width="20" height="20" viewBox="0 0 20 20" fill="none" xmlns="http://www.w3.org/2000/svg">
<path d="M18.8899 2.6605L19.6651 1.88526C19.7699 1.7841 19.8534 1.66311 19.9109 1.52933C19.9683 1.39555 19.9986 1.25166 19.9999 1.10606C20.0011 0.960464 19.9734 0.816073 19.9182 0.681313C19.8631 0.546554 19.7817 0.424123 19.6787 0.321167C19.5758 0.218211 19.4533 0.13679 19.3186 0.081655C19.1838 0.0265204 19.0394 -0.0012238 18.8938 4.14015e-05C18.7482 0.0013066 18.6043 0.0315559 18.4706 0.0890241C18.3368 0.146492 18.2158 0.230029 18.1146 0.334759L17.3394 1.11001L18.8899 2.6605Z" fill="white"/>
<path d="M16.5633 1.88526L12.687 5.76205L12.2988 7.70072L14.2375 7.31255L18.1144 3.43631L16.5633 1.88526Z" fill="white"/>
<path d="M13.5287 0H3.86536C2.8402 0 1.85703 0.407242 1.13214 1.13214C0.407242 1.85703 0 2.8402 0 3.86536V15.4614C0 16.4866 0.407242 17.4697 1.13214 18.1946C1.85703 18.9195 2.8402 19.3268 3.86536 19.3268H13.5287C14.0413 19.3268 14.5329 19.1232 14.8954 18.7607C15.2578 18.3983 15.4614 17.9067 15.4614 17.3941V1.93268C15.4614 1.4201 15.2578 0.928516 14.8954 0.566068C14.5329 0.203621 14.0413 0 13.5287 0ZM1.93268 3.86536C1.93268 3.35278 2.1363 2.86119 2.49875 2.49875C2.86119 2.1363 3.35278 1.93268 3.86536 1.93268H13.5287V11.5961H3.86536C3.18413 11.5989 2.51634 11.7859 1.93268 12.1372V3.86536ZM3.86536 17.3941C3.35278 17.3941 2.86119 17.1905 2.49875 16.828C2.1363 16.4656 1.93268 15.974 1.93268 15.4614C1.93268 14.9488 2.1363 14.4573 2.49875 14.0948C2.86119 13.7324 3.35278 13.5287 3.86536 13.5287H13.5287V17.3941H3.86536ZM5.79804 5.79803H9.66339C9.91968 5.79803 10.1655 5.69622 10.3467 5.515C10.5279 5.33378 10.6297 5.08798 10.6297 4.8317C10.6297 4.57541 10.5279 4.32961 10.3467 4.14839C10.1655 3.96717 9.91968 3.86536 9.66339 3.86536H5.79804C5.54175 3.86536 5.29595 3.96717 5.11473 4.14839C4.93351 4.32961 4.8317 4.57541 4.8317 4.8317C4.8317 5.08798 4.93351 5.33378 5.11473 5.515C5.29595 5.69622 5.54175 5.79803 5.79804 5.79803Z" fill="white"/>
</svg>
