<svg width="18" height="19" viewBox="0 0 18 19" fill="none" xmlns="http://www.w3.org/2000/svg">
<path d="M2.28431 0.17C1.31594 0.502645 0.44367 1.3897 0.147985 2.34329C0.00753406 2.80899 0.000141929 3.02337 0.000141929 9.011C0.000141929 15.8709 -0.0220345 15.5826 0.488023 16.4179C0.924159 17.1424 1.6338 17.6894 2.44694 17.9185C2.80915 18.0294 3.56315 18.0368 9.17379 18.022L15.4867 17.9998L15.9154 17.8224C16.7212 17.5046 17.4973 16.721 17.8374 15.8931L18 15.4865V9.01839V2.55027L17.83 2.12152C17.4973 1.30839 16.7286 0.539606 15.9154 0.206961L15.4867 0.0369415L9.12943 0.0221577L2.77219 -1.90735e-05L2.28431 0.17ZM14.6883 4.83444C15.4571 5.59583 15.5828 5.8102 15.4867 6.1872C15.4275 6.43853 8.13149 13.7937 7.79885 13.9342C7.33314 14.1411 7.27401 14.0894 4.86417 11.687C3.37835 10.2011 2.58 9.35843 2.55043 9.22537C2.46172 8.85576 2.58739 8.62661 3.26747 7.93175C3.9919 7.19253 4.33194 6.97816 4.64241 7.05947C4.76068 7.08904 5.37423 7.63606 6.17258 8.43441L7.50316 9.7576L10.3122 6.94859C13.1655 4.08783 13.306 3.96956 13.7495 4.05087C13.853 4.07305 14.2522 4.4057 14.6883 4.83444Z" fill="#878787"/>
</svg>
