<svg width="19" height="19" viewBox="0 0 19 19" fill="none" xmlns="http://www.w3.org/2000/svg">
<path d="M9.5 3.8C9.37524 3.79997 9.25169 3.82452 9.13642 3.87225C9.02114 3.91998 8.9164 3.98995 8.82818 4.07818C8.73996 4.1664 8.66998 4.27114 8.62225 4.38641C8.57452 4.50169 8.54997 4.62523 8.55 4.75V8.9146L6.24088 10.0766C6.12946 10.1326 6.03017 10.2101 5.94869 10.3045C5.8672 10.3989 5.8051 10.5084 5.76595 10.6268C5.72679 10.7452 5.71134 10.8702 5.72048 10.9946C5.72962 11.119 5.76317 11.2403 5.81921 11.3518C5.87526 11.4632 5.95269 11.5625 6.04711 11.6439C6.14152 11.7254 6.25106 11.7875 6.36947 11.8267C6.48788 11.8658 6.61284 11.8813 6.73722 11.8721C6.86161 11.863 6.98297 11.8295 7.09438 11.7734L9.92676 10.3484C10.0841 10.2695 10.2164 10.1483 10.3088 9.99845C10.4012 9.84862 10.4501 9.67603 10.45 9.5V4.75C10.45 4.62523 10.4255 4.50169 10.3778 4.38641C10.33 4.27114 10.26 4.1664 10.1718 4.07818C10.0836 3.98995 9.97886 3.91998 9.86359 3.87225C9.74832 3.82452 9.62477 3.79997 9.5 3.8ZM9.5 0C7.62108 0 5.78435 0.557165 4.22209 1.60104C2.65982 2.64491 1.44218 4.12861 0.723149 5.86451C0.0041162 7.6004 -0.184015 9.51054 0.182544 11.3534C0.549104 13.1962 1.45389 14.8889 2.78249 16.2175C4.11109 17.5461 5.80383 18.4509 7.64665 18.8175C9.48946 19.184 11.3996 18.9959 13.1355 18.2769C14.8714 17.5578 16.3551 16.3402 17.399 14.7779C18.4428 13.2156 19 11.3789 19 9.5C18.9971 6.98133 17.9953 4.56664 16.2143 2.78567C14.4334 1.0047 12.0187 0.00288145 9.5 0ZM9.5 17.1C7.99686 17.1 6.52748 16.6543 5.27767 15.8192C4.02786 14.9841 3.05375 13.7971 2.47852 12.4084C1.90329 11.0197 1.75279 9.49157 2.04604 8.01731C2.33928 6.54306 3.06311 5.18887 4.12599 4.12599C5.18887 3.06311 6.54306 2.33928 8.01732 2.04603C9.49157 1.75278 11.0197 1.90329 12.4084 2.47852C13.7971 3.05374 14.9841 4.02785 15.8192 5.27767C16.6543 6.52748 17.1 7.99686 17.1 9.5C17.0977 11.5149 16.2962 13.4467 14.8715 14.8715C13.4467 16.2962 11.5149 17.0977 9.5 17.1Z" fill="white"/>
</svg>
