<svg width="20" height="22" viewBox="0 0 20 22" fill="none" xmlns="http://www.w3.org/2000/svg">
<path d="M15.6611 11.6266L9.50721 17.8017C9.42708 17.8741 9.33494 17.9102 9.23077 17.9102C9.1266 17.9102 9.03446 17.8741 8.95433 17.8017L5.49279 14.3282C5.42067 14.2478 5.38462 14.1553 5.38462 14.0508C5.38462 13.9463 5.42067 13.8578 5.49279 13.7855L6.04567 13.2307C6.11779 13.1583 6.20593 13.1221 6.3101 13.1221C6.41426 13.1221 6.50641 13.1583 6.58654 13.2307L9.23077 15.884L14.5673 10.5291C14.6474 10.4567 14.7396 10.4205 14.8438 10.4205C14.9479 10.4205 15.0361 10.4567 15.1082 10.5291L15.6611 11.0838C15.7332 11.1562 15.7692 11.2447 15.7692 11.3492C15.7692 11.4537 15.7332 11.5462 15.6611 11.6266ZM1.53846 20.0691H18.4615V7.71889H1.53846V20.0691ZM6.15385 5.40323V1.92972C6.15385 1.81716 6.11779 1.72469 6.04567 1.65233C5.97356 1.57996 5.88141 1.54378 5.76923 1.54378H5C4.88782 1.54378 4.79567 1.57996 4.72356 1.65233C4.65144 1.72469 4.61538 1.81716 4.61538 1.92972V5.40323C4.61538 5.51579 4.65144 5.60826 4.72356 5.68062C4.79567 5.75299 4.88782 5.78917 5 5.78917H5.76923C5.88141 5.78917 5.97356 5.75299 6.04567 5.68062C6.11779 5.60826 6.15385 5.51579 6.15385 5.40323ZM15.3846 5.40323V1.92972C15.3846 1.81716 15.3486 1.72469 15.2764 1.65233C15.2043 1.57996 15.1122 1.54378 15 1.54378H14.2308C14.1186 1.54378 14.0264 1.57996 13.9543 1.65233C13.8822 1.72469 13.8462 1.81716 13.8462 1.92972V5.40323C13.8462 5.51579 13.8822 5.60826 13.9543 5.68062C14.0264 5.75299 14.1186 5.78917 14.2308 5.78917H15C15.1122 5.78917 15.2043 5.75299 15.2764 5.68062C15.3486 5.60826 15.3846 5.51579 15.3846 5.40323ZM20 4.63134V20.0691C20 20.4872 19.8478 20.8491 19.5433 21.1546C19.2388 21.4601 18.8782 21.6129 18.4615 21.6129H1.53846C1.12179 21.6129 0.761218 21.4601 0.456731 21.1546C0.152244 20.8491 0 20.4872 0 20.0691V4.63134C0 4.21323 0.152244 3.85141 0.456731 3.54587C0.761218 3.24033 1.12179 3.08756 1.53846 3.08756H3.07692V1.92972C3.07692 1.39905 3.26522 0.94476 3.64183 0.566856C4.01843 0.188952 4.47115 0 5 0H5.76923C6.29808 0 6.7508 0.188952 7.1274 0.566856C7.50401 0.94476 7.69231 1.39905 7.69231 1.92972V3.08756H12.3077V1.92972C12.3077 1.39905 12.496 0.94476 12.8726 0.566856C13.2492 0.188952 13.7019 0 14.2308 0H15C15.5288 0 15.9816 0.188952 16.3582 0.566856C16.7348 0.94476 16.9231 1.39905 16.9231 1.92972V3.08756H18.4615C18.8782 3.08756 19.2388 3.24033 19.5433 3.54587C19.8478 3.85141 20 4.21323 20 4.63134Z" fill="#015488"/>
</svg>
