<svg width="15" height="19" viewBox="0 0 15 19" fill="none" xmlns="http://www.w3.org/2000/svg">
<path d="M4.6875 7.5H5.625C5.87364 7.5 6.1121 7.40123 6.28791 7.22541C6.46373 7.0496 6.5625 6.81114 6.5625 6.5625C6.5625 6.31386 6.46373 6.0754 6.28791 5.89959C6.1121 5.72377 5.87364 5.625 5.625 5.625H4.6875C4.43886 5.625 4.2004 5.72377 4.02459 5.89959C3.84877 6.0754 3.75 6.31386 3.75 6.5625C3.75 6.81114 3.84877 7.0496 4.02459 7.22541C4.2004 7.40123 4.43886 7.5 4.6875 7.5ZM4.6875 9.375C4.43886 9.375 4.2004 9.47377 4.02459 9.64959C3.84877 9.8254 3.75 10.0639 3.75 10.3125C3.75 10.5611 3.84877 10.7996 4.02459 10.9754C4.2004 11.1512 4.43886 11.25 4.6875 11.25H10.3125C10.5611 11.25 10.7996 11.1512 10.9754 10.9754C11.1512 10.7996 11.25 10.5611 11.25 10.3125C11.25 10.0639 11.1512 9.8254 10.9754 9.64959C10.7996 9.47377 10.5611 9.375 10.3125 9.375H4.6875ZM15 6.50625C14.9902 6.42013 14.9714 6.33528 14.9438 6.25313V6.16875C14.8987 6.07236 14.8385 5.98375 14.7656 5.90625L9.14062 0.28125C9.06313 0.208328 8.97452 0.148201 8.87813 0.103125C8.85014 0.0991501 8.82173 0.0991501 8.79375 0.103125C8.69851 0.0485074 8.59333 0.0134477 8.48438 0H2.8125C2.06658 0 1.35121 0.296316 0.823762 0.823762C0.296316 1.35121 0 2.06658 0 2.8125V15.9375C0 16.6834 0.296316 17.3988 0.823762 17.9262C1.35121 18.4537 2.06658 18.75 2.8125 18.75H12.1875C12.9334 18.75 13.6488 18.4537 14.1762 17.9262C14.7037 17.3988 15 16.6834 15 15.9375V6.5625C15 6.5625 15 6.5625 15 6.50625ZM9.375 3.19687L11.8031 5.625H10.3125C10.0639 5.625 9.8254 5.52623 9.64959 5.35041C9.47377 5.1746 9.375 4.93614 9.375 4.6875V3.19687ZM13.125 15.9375C13.125 16.1861 13.0262 16.4246 12.8504 16.6004C12.6746 16.7762 12.4361 16.875 12.1875 16.875H2.8125C2.56386 16.875 2.3254 16.7762 2.14959 16.6004C1.97377 16.4246 1.875 16.1861 1.875 15.9375V2.8125C1.875 2.56386 1.97377 2.3254 2.14959 2.14959C2.3254 1.97377 2.56386 1.875 2.8125 1.875H7.5V4.6875C7.5 5.43342 7.79632 6.14879 8.32376 6.67624C8.85121 7.20368 9.56658 7.5 10.3125 7.5H13.125V15.9375ZM10.3125 13.125H4.6875C4.43886 13.125 4.2004 13.2238 4.02459 13.3996C3.84877 13.5754 3.75 13.8139 3.75 14.0625C3.75 14.3111 3.84877 14.5496 4.02459 14.7254C4.2004 14.9012 4.43886 15 4.6875 15H10.3125C10.5611 15 10.7996 14.9012 10.9754 14.7254C11.1512 14.5496 11.25 14.3111 11.25 14.0625C11.25 13.8139 11.1512 13.5754 10.9754 13.3996C10.7996 13.2238 10.5611 13.125 10.3125 13.125Z" fill="white"/>
</svg>
