<svg width="30" height="27" viewBox="0 0 30 27" fill="none" xmlns="http://www.w3.org/2000/svg">
<path d="M16.2132 0.206858C12.9827 0.997797 10.9106 4.14507 11.4327 7.45713C11.5143 7.98442 11.6775 8.67649 11.808 8.98957C12.1833 9.87937 13.1133 11.0823 13.8475 11.5931C14.2064 11.8402 14.5001 12.1204 14.5001 12.1863C14.5001 12.2687 13.0643 12.3346 11.3185 12.3346C9.57276 12.3181 8.13698 12.2851 8.13698 12.2357C8.13698 12.2028 8.43066 11.8897 8.80592 11.5601C9.16487 11.2306 9.65434 10.5714 9.89908 10.1265C10.2743 9.41799 10.3396 9.07196 10.3396 7.88555C10.3396 6.7321 10.2743 6.33663 9.94802 5.67751C7.68014 1.03075 0.827554 2.34898 0.50124 7.49008C0.403346 9.15435 0.762291 10.1595 1.87176 11.3294C2.36123 11.8238 2.7528 12.2522 2.7528 12.2851C2.7528 12.3181 2.42649 12.3346 2.03491 12.3346C1.13755 12.3346 0.38703 12.9113 0.142295 13.7846C0.0117695 14.1801 -0.0208619 16.2893 0.0117695 19.9474C0.0607165 25.2532 0.0770322 25.5169 0.403346 25.9618C1.17018 27.0328 0.892817 26.9999 11.1228 26.9999C21.3364 26.9999 21.2222 27.0164 21.8422 25.9783C22.1032 25.5498 22.1685 25.1544 22.1685 24.0833C22.1685 23.3418 22.2174 22.6992 22.299 22.6662C22.3643 22.6168 23.8 23.4736 25.4806 24.5447C28.7437 26.6374 29.2658 26.8351 29.739 26.143C29.9674 25.83 30 24.9072 30 19.5354V13.3068L29.5921 12.9113C29.38 12.6806 29.1026 12.4994 28.9721 12.4994C28.8416 12.4994 27.3242 13.3562 25.5948 14.3943C23.8816 15.4324 22.3969 16.2893 22.3153 16.2893C22.2337 16.2893 22.1685 15.729 22.1685 15.037C22.1685 13.6199 21.9237 13.0431 21.1406 12.5817L20.6511 12.2851L21.1243 11.9391C22.7558 10.7527 23.6369 9.35208 23.9958 7.42417C24.3385 5.56217 23.7348 3.61778 22.3153 2.05238C21.4506 1.09666 20.178 0.388115 18.889 0.140947C17.8285 -0.0567875 17.2411 -0.0567875 16.2132 0.206858ZM19.7211 1.80521C20.129 1.98647 20.798 2.48081 21.2222 2.89275C23.7511 5.41387 22.9843 9.61573 19.7048 11.0987C18.8074 11.4942 18.5464 11.5436 17.4532 11.4777C14.7122 11.3129 12.9012 9.48391 12.738 6.71562C12.6727 5.59513 12.7217 5.33148 13.097 4.49111C14.3206 1.80521 17.1432 0.668238 19.7211 1.80521ZM6.55436 4.32633C7.51699 4.68884 8.30014 5.38091 8.72435 6.30367C9.37697 7.72077 9.18119 9.08843 8.16961 10.2254C6.32594 12.2851 3.25859 11.8073 2.08386 9.28617C0.794922 6.50141 3.6828 3.28822 6.55436 4.32633ZM20.7001 13.9659C20.798 14.1801 20.8632 16.2893 20.8632 19.7331C20.8632 25.1708 20.8632 25.1708 20.5043 25.418C20.178 25.6487 19.0195 25.6817 11.1391 25.6817C2.80175 25.6817 2.11649 25.6652 1.79018 25.3851C1.46387 25.1049 1.44755 24.9896 1.43123 19.6178C1.43123 15.5807 1.48018 14.0648 1.61071 13.8835C1.79018 13.6858 3.22596 13.6528 11.1717 13.6528C20.2595 13.6528 20.5369 13.6693 20.7001 13.9659ZM28.6947 19.5848C28.6947 22.485 28.6458 24.8578 28.5805 24.8413C28.499 24.8413 27.0958 23.968 25.4316 22.9134L22.4132 20.9855L22.3643 19.486L22.3153 18.003L25.3011 16.1574C26.949 15.1523 28.3847 14.3119 28.499 14.3119C28.6458 14.3119 28.6947 15.4819 28.6947 19.5848Z" fill="#151515"/>
</svg>
