<svg width="25" height="17" viewBox="0 0 25 17" fill="none" xmlns="http://www.w3.org/2000/svg">
<path d="M0.991211 0.0755901C0.712891 0.174879 0.317383 0.524753 0.15625 0.822618L0.0244141 1.06375V8.17943V15.2951L0.166016 15.5882C0.332031 15.9381 0.683594 16.2785 0.957031 16.3589C1.09375 16.3967 3.68652 16.4062 10.4785 16.3967L19.8047 16.3826L20.1807 16.2029C20.625 15.9901 21.0254 15.6308 21.2061 15.2951C21.2695 15.1627 22.1484 13.2479 23.1494 11.0399L24.9756 7.02106V6.63336C24.9756 6.28349 24.9609 6.23148 24.8291 6.04236C24.7314 5.90997 24.5898 5.7965 24.4189 5.70667L24.1504 5.57901H21.8945H19.6387L19.6191 4.57194C19.6045 3.73981 19.585 3.53651 19.5166 3.38048C19.3945 3.12044 19.2236 2.95969 18.9258 2.8273L18.6768 2.71856L14.209 2.69492C9.40918 2.66655 9.58984 2.68073 9.23828 2.42542C9.01367 2.25994 8.86719 2.03299 8.64258 1.47036C8.31543 0.661866 8.07129 0.349815 7.57812 0.1276C7.34863 0.0235825 7.31934 0.0235825 4.27246 0.0141258C1.63086 0.0046711 1.16699 0.0141258 0.991211 0.0755901ZM7.06543 1.01647C7.3877 1.14885 7.52441 1.33797 7.7832 1.99517C8.06152 2.71856 8.37891 3.13462 8.83301 3.37575C9.33105 3.63579 9.37012 3.64052 13.9893 3.64052C17.9346 3.64052 18.2471 3.64525 18.4082 3.72563C18.501 3.76818 18.5889 3.85328 18.6035 3.91475C18.6182 3.97148 18.623 4.37337 18.6133 4.79889L18.5986 5.57901L11.9971 5.58847L5.39551 5.60265L5.06836 5.75868C4.66797 5.9478 4.21387 6.34022 4.04297 6.65227C3.97461 6.7752 3.28613 8.27399 2.51465 9.97608C1.73828 11.6782 1.0791 13.1344 1.04492 13.2148C0.991211 13.333 0.981445 12.3637 0.991211 7.31893L1.00098 1.28596L1.12305 1.15831C1.19141 1.08739 1.28906 1.01174 1.34277 0.992827C1.39648 0.969188 2.66602 0.950275 4.16504 0.950275C6.50879 0.945547 6.91406 0.955004 7.06543 1.01647ZM23.9014 6.52462C24.0039 6.56244 24.0283 6.60027 24.0137 6.68064C24.0039 6.73738 23.1689 8.60022 22.1631 10.8177C20.8691 13.6828 20.2881 14.9074 20.1709 15.0398C20.083 15.1438 19.8975 15.2856 19.7559 15.3566L19.5068 15.4842L10.459 15.4984C4.21875 15.5031 1.38184 15.4937 1.31836 15.4606C1.26465 15.4322 1.2207 15.366 1.2207 15.3187C1.2207 15.1958 4.86328 7.15345 4.98535 7.00215C5.1416 6.81303 5.46875 6.60499 5.70801 6.54353C6.00098 6.46788 23.6963 6.44897 23.9014 6.52462Z" fill="white"/>
</svg>
