<svg width="20" height="17" viewBox="0 0 20 17" fill="none" xmlns="http://www.w3.org/2000/svg">
<path d="M11.299 8.71921C11.8325 8.25739 12.2604 7.68619 12.5537 7.04439C12.847 6.40258 12.9988 5.70519 12.9988 4.99955C12.9988 3.67359 12.4721 2.40193 11.5345 1.46433C10.5969 0.526737 9.32524 0 7.99928 0C6.67332 0 5.40166 0.526737 4.46406 1.46433C3.52647 2.40193 2.99973 3.67359 2.99973 4.99955C2.99972 5.70519 3.15152 6.40258 3.44482 7.04439C3.73811 7.68619 4.16605 8.25739 4.69958 8.71921C3.29984 9.35304 2.11227 10.3766 1.27886 11.6675C0.445455 12.9584 0.00147172 14.462 0 15.9986C0 16.2638 0.105347 16.5181 0.292867 16.7056C0.480386 16.8931 0.734717 16.9985 0.99991 16.9985C1.2651 16.9985 1.51943 16.8931 1.70695 16.7056C1.89447 16.5181 1.99982 16.2638 1.99982 15.9986C1.99982 14.4074 2.6319 12.8814 3.75702 11.7563C4.88214 10.6312 6.40812 9.9991 7.99928 9.9991C9.59043 9.9991 11.1164 10.6312 12.2415 11.7563C13.3667 12.8814 13.9987 14.4074 13.9987 15.9986C13.9987 16.2638 14.1041 16.5181 14.2916 16.7056C14.4791 16.8931 14.7335 16.9985 14.9986 16.9985C15.2638 16.9985 15.5182 16.8931 15.7057 16.7056C15.8932 16.5181 15.9986 16.2638 15.9986 15.9986C15.9971 14.462 15.5531 12.9584 14.7197 11.6675C13.8863 10.3766 12.6987 9.35304 11.299 8.71921ZM7.99928 7.99928C7.40599 7.99928 6.82602 7.82335 6.33272 7.49373C5.83942 7.16412 5.45493 6.69563 5.22789 6.1475C5.00085 5.59937 4.94144 4.99622 5.05719 4.41433C5.17293 3.83244 5.45863 3.29794 5.87815 2.87842C6.29767 2.4589 6.83217 2.1732 7.41406 2.05746C7.99595 1.94171 8.5991 2.00112 9.14723 2.22816C9.69535 2.4552 10.1638 2.83969 10.4935 3.33299C10.8231 3.82629 10.999 4.40626 10.999 4.99955C10.999 5.79513 10.683 6.55812 10.1204 7.12068C9.55785 7.68324 8.79486 7.99928 7.99928 7.99928ZM19.7082 5.62949C19.6153 5.53577 19.5047 5.46139 19.3828 5.41062C19.261 5.35986 19.1303 5.33372 18.9983 5.33372C18.8663 5.33372 18.7356 5.35986 18.6137 5.41062C18.4919 5.46139 18.3813 5.53577 18.2884 5.62949L16.2885 7.62931L15.6686 6.99937C15.5756 6.90565 15.465 6.83126 15.3432 6.7805C15.2213 6.72973 15.0907 6.7036 14.9587 6.7036C14.8267 6.7036 14.696 6.72973 14.5741 6.7805C14.4523 6.83126 14.3417 6.90565 14.2487 6.99937C14.0625 7.18671 13.9579 7.44014 13.9579 7.70431C13.9579 7.96847 14.0625 8.2219 14.2487 8.40924L15.5886 9.74912C15.7759 9.93536 16.0294 10.0399 16.2935 10.0399C16.5577 10.0399 16.8111 9.93536 16.9985 9.74912L19.6682 7.07936C19.7692 6.98869 19.8506 6.87842 19.9076 6.75527C19.9646 6.63212 19.9959 6.49866 19.9996 6.36302C20.0034 6.22738 19.9795 6.09239 19.9294 5.96629C19.8793 5.84018 19.804 5.72559 19.7082 5.62949Z" fill="white"/>
</svg>
