<svg width="20" height="19" viewBox="0 0 20 19" fill="none" xmlns="http://www.w3.org/2000/svg">
<path d="M19.0909 12.7273H17.1091C17.2149 12.4358 17.2703 12.1283 17.2727 11.8182V7.27273C17.2727 6.54941 16.9854 5.85572 16.4739 5.34425C15.9625 4.83279 15.2688 4.54545 14.5455 4.54545H9.09091C8.36759 4.54545 7.6739 4.83279 7.16244 5.34425C6.65097 5.85572 6.36364 6.54941 6.36364 7.27273V11.8182C6.3661 12.1283 6.42143 12.4358 6.52727 12.7273H5.45455C5.21344 12.7273 4.98221 12.6315 4.81172 12.461C4.64123 12.2905 4.54545 12.0593 4.54545 11.8182V2.72727C4.54545 2.00396 4.25812 1.31026 3.74665 0.7988C3.23519 0.287337 2.5415 0 1.81818 0H0.909091C0.667985 0 0.436754 0.0957789 0.266267 0.266267C0.0957789 0.436754 0 0.667985 0 0.909091C0 1.1502 0.0957789 1.38143 0.266267 1.55192C0.436754 1.7224 0.667985 1.81818 0.909091 1.81818H1.81818C2.05929 1.81818 2.29052 1.91396 2.46101 2.08445C2.63149 2.25494 2.72727 2.48617 2.72727 2.72727V11.8182C2.73062 12.4154 2.92989 12.9949 3.29448 13.4679C3.65906 13.9409 4.16881 14.2811 4.74545 14.4364C4.57803 14.846 4.51278 15.2901 4.55533 15.7306C4.59789 16.171 4.74696 16.5945 4.9897 16.9644C5.23244 17.3344 5.56155 17.6397 5.94864 17.8541C6.33572 18.0685 6.76915 18.1855 7.21154 18.1949C7.65392 18.2044 8.09197 18.1061 8.48788 17.9085C8.88379 17.7109 9.22568 17.4199 9.48405 17.0607C9.74241 16.7015 9.90949 16.2848 9.97087 15.8466C10.0323 15.4084 9.98609 14.9618 9.83636 14.5455H12.8909C12.7414 14.9574 12.6934 15.3993 12.7508 15.8337C12.8083 16.2682 12.9697 16.6824 13.2212 17.0412C13.4727 17.4001 13.807 17.6931 14.1958 17.8953C14.5845 18.0976 15.0163 18.2032 15.4545 18.2032C15.8928 18.2032 16.3246 18.0976 16.7133 17.8953C17.1021 17.6931 17.4364 17.4001 17.6879 17.0412C17.9394 16.6824 18.1008 16.2682 18.1582 15.8337C18.2157 15.3993 18.1677 14.9574 18.0182 14.5455H19.0909C19.332 14.5455 19.5632 14.4497 19.7337 14.2792C19.9042 14.1087 20 13.8775 20 13.6364C20 13.3953 19.9042 13.164 19.7337 12.9935C19.5632 12.8231 19.332 12.7273 19.0909 12.7273ZM7.27273 16.3636C7.09293 16.3636 6.91716 16.3103 6.76766 16.2104C6.61816 16.1105 6.50164 15.9686 6.43284 15.8024C6.36403 15.6363 6.34603 15.4535 6.3811 15.2772C6.41618 15.1008 6.50276 14.9389 6.6299 14.8117C6.75704 14.6846 6.91903 14.598 7.09537 14.5629C7.27172 14.5278 7.45451 14.5458 7.62062 14.6147C7.78674 14.6835 7.92872 14.8 8.02861 14.9495C8.1285 15.099 8.18182 15.2747 8.18182 15.4545C8.18182 15.6957 8.08604 15.9269 7.91555 16.0974C7.74506 16.2679 7.51383 16.3636 7.27273 16.3636ZM9.09091 12.7273C8.8498 12.7273 8.61857 12.6315 8.44808 12.461C8.2776 12.2905 8.18182 12.0593 8.18182 11.8182V7.27273C8.18182 7.03162 8.2776 6.80039 8.44808 6.6299C8.61857 6.45942 8.8498 6.36364 9.09091 6.36364H14.5455C14.7866 6.36364 15.0178 6.45942 15.1883 6.6299C15.3588 6.80039 15.4545 7.03162 15.4545 7.27273V11.8182C15.4545 12.0593 15.3588 12.2905 15.1883 12.461C15.0178 12.6315 14.7866 12.7273 14.5455 12.7273H9.09091ZM15.4545 16.3636C15.2747 16.3636 15.099 16.3103 14.9495 16.2104C14.8 16.1105 14.6835 15.9686 14.6147 15.8024C14.5458 15.6363 14.5278 15.4535 14.5629 15.2772C14.598 15.1008 14.6846 14.9389 14.8117 14.8117C14.9389 14.6846 15.1008 14.598 15.2772 14.5629C15.4535 14.5278 15.6363 14.5458 15.8024 14.6147C15.9686 14.6835 16.1105 14.8 16.2104 14.9495C16.3103 15.099 16.3636 15.2747 16.3636 15.4545C16.3636 15.6957 16.2679 15.9269 16.0974 16.0974C15.9269 16.2679 15.6957 16.3636 15.4545 16.3636Z" fill="#015488"/>
</svg>
