<svg width="20" height="22" viewBox="0 0 20 22" fill="none" xmlns="http://www.w3.org/2000/svg">
<path d="M18.8889 6.58822L12.2222 0.835493C11.6111 0.297454 10.82 0 10 0C9.18011 0 8.38896 0.297454 7.77783 0.835493L1.11121 6.58822C0.758287 6.8989 0.476658 7.28003 0.285072 7.70622C0.0934866 8.13241 -0.00365837 8.59389 0.000105326 9.05992V18.6186C0.000105326 19.4888 0.351292 20.3234 0.976409 20.9387C1.60153 21.554 2.44937 21.8997 3.33342 21.8997H16.6667C17.5507 21.8997 18.3985 21.554 19.0237 20.9387C19.6488 20.3234 20 19.4888 20 18.6186V9.04899C20.0021 8.58479 19.9042 8.12542 19.7127 7.70123C19.5212 7.27704 19.2404 6.89768 18.8889 6.58822ZM12.2222 19.7123H7.77783V14.2439C7.77783 13.9539 7.89489 13.6757 8.10326 13.4706C8.31164 13.2655 8.59425 13.1503 8.88893 13.1503H11.1111C11.4058 13.1503 11.6884 13.2655 11.8968 13.4706C12.1052 13.6757 12.2222 13.9539 12.2222 14.2439V19.7123ZM17.7778 18.6186C17.7778 18.9087 17.6607 19.1869 17.4523 19.392C17.2439 19.5971 16.9613 19.7123 16.6667 19.7123H14.4444V14.2439C14.4444 13.3738 14.0933 12.5392 13.4681 11.9239C12.843 11.3086 11.9952 10.9629 11.1111 10.9629H8.88893C8.00488 10.9629 7.15704 11.3086 6.53192 11.9239C5.90681 12.5392 5.55562 13.3738 5.55562 14.2439V19.7123H3.33342C3.03873 19.7123 2.75612 19.5971 2.54775 19.392C2.33937 19.1869 2.22231 18.9087 2.22231 18.6186V9.04899C2.22251 8.8937 2.2563 8.74024 2.32144 8.59881C2.38658 8.45738 2.48157 8.33122 2.60009 8.22873L9.26671 2.48694C9.46947 2.3116 9.73014 2.21491 10 2.21491C10.2699 2.21491 10.5306 2.3116 10.7334 2.48694L17.4 8.22873C17.5185 8.33122 17.6135 8.45738 17.6786 8.59881C17.7438 8.74024 17.7776 8.8937 17.7778 9.04899V18.6186Z" fill="#015488"/>
</svg>
