<svg width="18" height="22" viewBox="0 0 18 22" fill="none" xmlns="http://www.w3.org/2000/svg">
<path d="M15.4 0H4.4C3.23305 0 2.11389 0.46357 1.28873 1.28873C0.46357 2.11389 0 3.23305 0 4.4V17.6C0 18.767 0.46357 19.8861 1.28873 20.7113C2.11389 21.5364 3.23305 22 4.4 22H15.4C15.9835 22 16.5431 21.7682 16.9556 21.3556C17.3682 20.9431 17.6 20.3835 17.6 19.8V2.2C17.6 1.61652 17.3682 1.05694 16.9556 0.644365C16.5431 0.231785 15.9835 0 15.4 0ZM2.2 4.4C2.2 3.81652 2.43179 3.25695 2.84437 2.84437C3.25695 2.43179 3.81652 2.2 4.4 2.2H15.4V13.2H4.4C3.62454 13.2033 2.86439 13.4161 2.2 13.816V4.4ZM4.4 19.8C3.81652 19.8 3.25695 19.5682 2.84437 19.1556C2.43179 18.7431 2.2 18.1835 2.2 17.6C2.2 17.0165 2.43179 16.4569 2.84437 16.0444C3.25695 15.6318 3.81652 15.4 4.4 15.4H15.4V19.8H4.4ZM6.6 6.6H11C11.2917 6.6 11.5715 6.48411 11.7778 6.27782C11.9841 6.07153 12.1 5.79174 12.1 5.5C12.1 5.20826 11.9841 4.92847 11.7778 4.72218C11.5715 4.51589 11.2917 4.4 11 4.4H6.6C6.30826 4.4 6.02847 4.51589 5.82218 4.72218C5.61589 4.92847 5.5 5.20826 5.5 5.5C5.5 5.79174 5.61589 6.07153 5.82218 6.27782C6.02847 6.48411 6.30826 6.6 6.6 6.6Z" fill="#04568E"/>
</svg>
