<svg width="24" height="18" viewBox="0 0 24 18" fill="none" xmlns="http://www.w3.org/2000/svg">
<path d="M23.3232 5.04641L12.3905 0.0981791C12.1041 -0.0327264 11.7918 -0.0327264 11.5315 0.0981791L0.598698 5.04641C0.260304 5.22967 0 5.57003 0 5.98893C0 6.38164 0.260304 6.74818 0.624729 6.93145L1.56182 7.37653V11.0419C1.56182 11.4084 1.84816 11.6964 2.21258 11.6964C2.57701 11.6964 2.86334 11.4084 2.86334 11.0419V8.05723L4.42516 8.89503V13.3458C4.42516 13.5291 4.47722 13.6862 4.58135 13.8433C4.68547 14.0003 7.05423 17.561 11.8438 17.561C16.7636 17.561 19.0282 13.9742 19.1323 13.8433C19.2104 13.7124 19.2885 13.5291 19.2885 13.372V9.02593L23.4273 6.90527C23.7918 6.722 24 6.35546 24 5.96275C23.9479 5.57003 23.6876 5.22967 23.3232 5.04641ZM17.4403 13.0578C16.9197 13.6862 15.1497 15.7283 11.8438 15.7283C8.61605 15.7283 6.7679 13.7124 6.24729 13.0578V9.81137L11.5054 12.508C11.6616 12.5866 11.8178 12.6127 11.974 12.6127C12.1302 12.6127 12.3124 12.5866 12.4685 12.508L17.4403 9.96845V13.0578ZM11.974 10.4135L3.43601 6.06747L11.974 2.19267L20.5119 6.06747L11.974 10.4135ZM2.86334 12.5866C3.04555 12.7698 3.17571 13.0578 3.17571 13.3196C3.17571 13.5814 3.07158 13.8694 2.86334 14.0527C2.68113 14.236 2.39479 14.3669 2.13449 14.3669C1.87419 14.3669 1.58785 14.2622 1.40564 14.0527C1.22343 13.8694 1.09328 13.5814 1.09328 13.3196C1.09328 13.0578 1.1974 12.7698 1.40564 12.5866C1.58785 12.4033 1.87419 12.2724 2.13449 12.2724C2.39479 12.2724 2.6551 12.3771 2.86334 12.5866Z" fill="#015488"/>
</svg>
