<svg width="15" height="15" viewBox="0 0 15 15" fill="none" xmlns="http://www.w3.org/2000/svg">
<path d="M11.8581 6.67325V13.1277C11.8581 13.2932 11.7923 13.452 11.6753 13.569C11.5583 13.6861 11.3995 13.7518 11.234 13.7518H1.87233C1.70681 13.7518 1.54806 13.6861 1.43102 13.569C1.31397 13.452 1.24822 13.2932 1.24822 13.1277V5.6385H5.83106L9.57635 1.89389H1.87233C0.840052 1.89389 0 2.73393 0 3.76619V13.1277C0 14.16 0.840052 15 1.87233 15H11.234C12.2663 15 13.1063 14.16 13.1063 13.1277V5.42443L11.8581 6.67325Z" fill="white"/>
<path d="M13.7367 3.0285L14.6192 2.14602C14.7384 2.03088 14.8335 1.89314 14.8989 1.74086C14.9643 1.58857 14.9987 1.42478 15.0002 1.25905C15.0016 1.09331 14.97 0.92895 14.9073 0.77555C14.8445 0.622151 14.7518 0.482787 14.6346 0.36559C14.5174 0.248393 14.3781 0.15571 14.2247 0.0929493C14.0713 0.0301886 13.9069 -0.00139307 13.7412 4.7128e-05C13.5754 0.00148732 13.4116 0.0359206 13.2593 0.101338C13.107 0.166755 12.9693 0.261845 12.8542 0.381061L11.9717 1.26354L13.7367 3.0285Z" fill="white"/>
<path d="M11.0882 2.14603L6.67576 6.55904L6.23389 8.76586L8.44074 8.324L12.8538 3.91161L11.0882 2.14603Z" fill="white"/>
</svg>
