<svg width="15" height="15" viewBox="0 0 15 15" fill="none" xmlns="http://www.w3.org/2000/svg">
<path d="M8.68504 7.21075C8.76729 7.27021 8.86325 7.29766 8.95464 7.29766C9.0506 7.29766 9.14656 7.27021 9.22424 7.21075C9.38417 7.09183 9.45271 6.88599 9.3933 6.69388L8.94093 5.2988L10.1244 4.43887C10.2843 4.31995 10.3529 4.11412 10.2935 3.92201C10.2341 3.7299 10.0559 3.60182 9.85482 3.60182H8.38803L7.93565 2.20674C7.87625 2.01462 7.69804 1.88655 7.49699 1.88655C7.29593 1.88655 7.12229 2.01462 7.05832 2.20674L6.60595 3.60182H5.13916C4.9381 3.60182 4.76446 3.7299 4.70049 3.92201C4.64109 4.11412 4.70506 4.31995 4.86956 4.43887L6.05305 5.2988L5.60067 6.69388C5.54127 6.88599 5.60524 7.09183 5.76974 7.21075C5.92967 7.32968 6.149 7.32968 6.3135 7.21075L7.49699 6.34625L8.68504 7.21075ZM6.92124 5.6327L7.04004 5.27135C7.09945 5.07924 7.03547 4.87341 6.87097 4.75448L6.56025 4.53035H6.94409C7.14514 4.53035 7.31878 4.40228 7.38275 4.21017L7.50156 3.84882L7.62036 4.21017C7.67977 4.40228 7.85797 4.53035 8.05903 4.53035H8.44286L8.13214 4.75448C7.97221 4.87341 7.90367 5.07924 7.96307 5.27135L8.08188 5.6327L7.77115 5.40857C7.6889 5.34911 7.59295 5.32167 7.50156 5.32167C7.41017 5.32167 7.30964 5.34911 7.23196 5.40857L6.92124 5.6327Z" fill="white"/>
<path d="M14.8775 2.18508C14.831 2.12773 14.7724 2.08139 14.7059 2.0494C14.6394 2.01741 14.5667 2.00057 14.4929 2.00008H12.7746L12.8146 1.72509C12.8472 1.5101 12.8327 1.2906 12.7721 1.08178C12.7116 0.872956 12.6064 0.679813 12.4638 0.515729C12.3213 0.351645 12.1448 0.220543 11.9467 0.131508C11.7485 0.0424736 11.5333 -0.00236609 11.3161 9.61839e-05H3.6639C3.44669 -0.00236609 3.23154 0.0424736 3.03336 0.131508C2.83518 0.220543 2.65871 0.351645 2.51617 0.515729C2.37364 0.679813 2.26844 0.872956 2.20788 1.08178C2.14731 1.2906 2.13283 1.5101 2.16542 1.72509L2.22536 2.00008H0.50711C0.433332 2.00057 0.360578 2.01741 0.294078 2.0494C0.227577 2.08139 0.168981 2.12773 0.122501 2.18508C0.0736726 2.24132 0.0380163 2.30776 0.0181395 2.37957C-0.00173724 2.45137 -0.00533199 2.52671 0.00761816 2.60008L0.856755 6.79505C0.92483 7.13478 1.1083 7.44044 1.376 7.6601C1.6437 7.87977 1.97912 7.99988 2.32526 8.00004H3.21935C3.61597 9.11604 4.43618 10.0305 5.50203 10.545V12H4.00356C3.91132 12.0003 3.82095 12.0261 3.74249 12.0747C3.66402 12.1232 3.60051 12.1926 3.55901 12.275L2.56002 14.275C2.52171 14.3511 2.50346 14.4358 2.50703 14.5209C2.51059 14.6061 2.53584 14.6889 2.58038 14.7616C2.62492 14.8342 2.68728 14.8942 2.76152 14.936C2.83576 14.9777 2.91943 14.9997 3.00457 15H11.9954C12.0806 14.9997 12.1642 14.9777 12.2385 14.936C12.3127 14.8942 12.3751 14.8342 12.4196 14.7616C12.4642 14.6889 12.4894 14.6061 12.493 14.5209C12.4965 14.4358 12.4783 14.3511 12.44 14.275L11.441 12.275C11.3995 12.1926 11.336 12.1232 11.2575 12.0747C11.179 12.0261 11.0887 12.0003 10.9964 12H9.49797V10.545C10.5638 10.0305 11.384 9.11604 11.7806 8.00004H12.6747C13.0209 7.99988 13.3563 7.87977 13.624 7.6601C13.8917 7.44044 14.0752 7.13478 14.1432 6.79505L14.9924 2.60008C15.0053 2.52671 15.0017 2.45137 14.9819 2.37957C14.962 2.30776 14.9263 2.24132 14.8775 2.18508ZM1.83576 6.60005L1.11649 3.00008H2.37521L2.9746 7.00005H2.32526C2.21011 7.00007 2.09849 6.96027 2.00929 6.88738C1.92009 6.81449 1.85879 6.71299 1.83576 6.60005ZM11.1863 14H3.81375L4.31324 13H10.6868L11.1863 14ZM8.49898 12H6.50102V10.885C7.1582 11.0384 7.8418 11.0384 8.49898 10.885V12ZM7.5 10C6.65015 9.99912 5.82904 9.69188 5.18696 9.13455C4.54489 8.57722 4.12479 7.80707 4.00356 6.96505L3.1694 1.57509C3.15873 1.50407 3.16347 1.43158 3.18329 1.36255C3.20312 1.29353 3.23756 1.22959 3.28429 1.17509C3.33118 1.12021 3.3894 1.07614 3.45493 1.04594C3.52046 1.01573 3.59175 1.00008 3.6639 1.00009H11.3361C11.4082 1.00008 11.4795 1.01573 11.5451 1.04594C11.6106 1.07614 11.6688 1.12021 11.7157 1.17509C11.7624 1.22959 11.7969 1.29353 11.8167 1.36255C11.8365 1.43158 11.8413 1.50407 11.8306 1.57509L11.0214 6.96505C10.8996 7.81134 10.4759 8.58488 9.82858 9.14276C9.18128 9.70064 8.35415 10.0052 7.5 10ZM13.1642 6.60005C13.1409 6.71469 13.0781 6.8175 12.9868 6.89059C12.8956 6.96367 12.7816 7.00241 12.6647 7.00005H12.0154L12.6148 3.00008H13.8735L13.1642 6.60005Z" fill="white"/>
</svg>
